<svg width="154" height="32" viewBox="0 0 154 32" fill="none" xmlns="http://www.w3.org/2000/svg">
<g clip-path="url(#clip0_245_628)">
<g clip-path="url(#clip1_245_628)">
<path d="M53.1643 18.027H48.3502V15.9704H49.6055V10.2727L46.5879 18.0255H44.7914L41.738 10.2891V15.9689H42.9933V18.0255H38.1792V15.9689H39.4345V8.40676H38.1792V6.35016H42.6445L45.6799 14.2087L48.7333 6.35016H53.1643V8.40676H51.909V15.9689H53.1643V18.027Z" fill="#FF0000"/>
<path d="M64.5546 18.0272H61.1703V17.086C60.9377 17.4106 60.5769 17.6846 60.0894 17.905C59.6004 18.1254 59.1292 18.2357 58.676 18.2357C58.0245 18.2357 57.4177 18.1165 56.8526 17.8783C56.2891 17.64 55.7941 17.3124 55.3692 16.8939C54.9443 16.4754 54.6103 15.9885 54.3658 15.43C54.1213 14.873 53.999 14.2803 53.999 13.6534C53.999 13.0264 54.1213 12.4337 54.3658 11.8767C54.6103 11.3198 54.9443 10.8313 55.3692 10.4129C55.7941 9.9944 56.2876 9.66676 56.8526 9.42849C57.4162 9.19021 58.0245 9.07109 58.676 9.07109C59.1412 9.07109 59.6212 9.18723 60.1147 9.41954C60.6082 9.65186 60.9959 9.94227 61.2747 10.2907V9.27957H64.5546V11.3362H63.4737V15.9706H64.5546V18.0272ZM61.1703 13.6534C61.1703 13.3168 61.1092 12.9996 60.9869 12.7033C60.8646 12.4069 60.6932 12.1523 60.4725 11.9363C60.2519 11.7219 59.9955 11.5506 59.7047 11.4226C59.414 11.2945 59.1054 11.2304 58.7804 11.2304C58.4554 11.2304 58.1438 11.2945 57.8471 11.4226C57.5504 11.5506 57.2939 11.7219 57.0792 11.9363C56.8646 12.1508 56.6931 12.4069 56.5649 12.7033C56.4366 12.9996 56.3726 13.3168 56.3726 13.6534C56.3726 13.9899 56.4366 14.3071 56.5649 14.6035C56.6931 14.8998 56.8646 15.156 57.0792 15.3704C57.2939 15.5849 57.5504 15.7561 57.8471 15.8842C58.1438 16.0123 58.4539 16.0763 58.7804 16.0763C59.1054 16.0763 59.414 16.0123 59.7047 15.8842C59.9955 15.7561 60.2519 15.5849 60.4725 15.3704C60.6932 15.156 60.8646 14.8998 60.9869 14.6035C61.1092 14.3071 61.1703 13.9914 61.1703 13.6534Z" fill="#FF0000"/>
<path d="M74.6199 14.873C74.4917 15.3377 74.277 15.774 73.9743 16.1791C73.6717 16.5856 73.3139 16.943 72.9009 17.2513C72.4879 17.5596 72.0376 17.8008 71.5486 17.9751C71.0596 18.1493 70.5721 18.2357 70.0831 18.2357C69.4196 18.2357 68.8009 18.1165 68.2254 17.8783C67.6499 17.64 67.1445 17.3124 66.7076 16.8939C66.2723 16.4754 65.9279 15.9885 65.6789 15.43C65.4284 14.873 65.3032 14.2803 65.3032 13.6534C65.3032 13.0264 65.4225 12.4337 65.661 11.8767C65.8996 11.3198 66.2246 10.8313 66.6376 10.4129C67.0506 9.9944 67.5306 9.66676 68.0763 9.42849C68.6235 9.19021 69.2094 9.07109 69.8385 9.07109C70.3156 9.07109 70.7957 9.16938 71.2773 9.36744C71.7603 9.56551 72.1122 9.80972 72.3328 10.0986V9.27957H74.2173V12.1716H72.2464C72.0257 11.8812 71.7231 11.6519 71.3399 11.4836C70.9567 11.3153 70.5557 11.2304 70.1367 11.2304C69.4509 11.2304 68.8695 11.4657 68.3924 11.9363C67.9153 12.4069 67.6767 12.9788 67.6767 13.6519C67.6767 13.9885 67.7408 14.3056 67.8691 14.602C67.9973 14.8983 68.1717 15.1545 68.3924 15.369C68.613 15.5834 68.8724 15.7547 69.1691 15.8827C69.4658 16.0108 69.7879 16.0748 70.1367 16.0748C70.5661 16.0748 70.9851 15.9617 71.3921 15.7353C71.7991 15.5089 72.0898 15.2215 72.2643 14.873H74.6199Z" fill="#FF0000"/>
<path d="M76.4506 15.9702V8.40808H75.3697V6.35147H78.754V10.1326C78.9985 9.81833 79.3534 9.56369 79.8185 9.36563C80.2837 9.16756 80.7429 9.06928 81.1961 9.06928C81.6613 9.06928 82.0996 9.16009 82.5126 9.34028C82.9256 9.52048 83.2864 9.76474 83.5935 10.0745C83.9021 10.3828 84.1436 10.7476 84.3181 11.1661C84.4925 11.5845 84.579 12.0328 84.579 12.5108V15.9688H85.6599V18.0254H81.1946V15.9688H82.2755V12.8906C82.2755 12.4244 82.1071 12.0313 81.7701 11.7096C81.4332 11.3895 81.0262 11.2286 80.5491 11.2286C80.0496 11.2286 79.6247 11.3895 79.2758 11.7096C78.927 12.0298 78.7525 12.4244 78.7525 12.8906V15.9688H79.8334V18.0254H75.3682V15.9688H76.4506V15.9702Z" fill="#FF0000"/>
<path d="M87.5624 15.9704V11.336H86.4814V9.27938H89.8658V15.9704H90.9467V18.027H86.4814V15.9704H87.5624ZM89.8658 8.54819H87.5638V6.3531H89.8658V8.54819Z" fill="#FF0000"/>
<path d="M102.023 18.0272H97.5916V15.9706H98.6725V12.9043C98.6725 12.4397 98.504 12.045 98.1671 11.7189C97.8301 11.3943 97.4231 11.2304 96.946 11.2304C96.4466 11.2304 96.0216 11.3928 95.6728 11.7189C95.3239 12.0436 95.1495 12.4397 95.1495 12.9043V15.9706H96.1961V18.0272H91.783V15.9706H92.8475V11.3362H91.7666V9.27957H95.0466V10.2907C95.3373 10.0003 95.7264 9.72484 96.2155 9.46273C96.7045 9.20063 97.1637 9.07109 97.5931 9.07109C98.0582 9.07109 98.4965 9.1619 98.9095 9.34061C99.3225 9.5208 99.6833 9.76804 99.9904 10.0808C100.299 10.395 100.541 10.7598 100.715 11.1783C100.889 11.5968 100.976 12.0435 100.976 12.5201V15.9706H102.023V18.0272Z" fill="#FF0000"/>
<path d="M107.552 16.0758C107.889 16.0758 108.21 16.0058 108.511 15.8673C108.814 15.7273 109.075 15.5427 109.295 15.3104H112C111.825 15.7407 111.584 16.1324 111.275 16.4869C110.967 16.8413 110.615 17.1495 110.22 17.4102C109.825 17.6708 109.391 17.8748 108.92 18.0192C108.448 18.1637 107.956 18.2367 107.445 18.2367C106.794 18.2367 106.187 18.1175 105.622 17.8792C105.058 17.641 104.563 17.3134 104.138 16.8949C103.713 16.4764 103.379 15.9894 103.135 15.431C102.89 14.874 102.768 14.2813 102.768 13.6544C102.768 13.0274 102.89 12.4347 103.135 11.8777C103.379 11.3208 103.713 10.8323 104.138 10.4139C104.563 9.99539 105.057 9.66775 105.622 9.42948C106.185 9.1912 106.794 9.07208 107.445 9.07208C108.119 9.07208 108.753 9.1912 109.346 9.42948C109.939 9.66775 110.457 9.99539 110.898 10.4139C111.339 10.8323 111.688 11.3193 111.945 11.8777C112.2 12.4347 112.328 13.0274 112.328 13.6544C112.328 13.8986 112.298 14.1652 112.241 14.4556H105.282C105.444 14.9321 105.732 15.3208 106.145 15.6231C106.561 15.9239 107.029 16.0758 107.552 16.0758ZM107.552 11.2314C107.075 11.2314 106.643 11.3625 106.252 11.6231C105.863 11.8837 105.569 12.2247 105.371 12.6417H109.732C109.534 12.2232 109.24 11.8837 108.851 11.6231C108.462 11.3625 108.029 11.2314 107.552 11.2314Z" fill="#FF0000"/>
<path d="M121.089 14.63C121.089 15.1646 120.999 15.6516 120.819 16.0939C120.638 16.5347 120.383 16.9159 120.051 17.2346C119.72 17.5548 119.32 17.8005 118.857 17.9748C118.391 18.149 117.868 18.2354 117.287 18.2354C116.996 18.2354 116.641 18.1564 116.222 18.0001C115.803 17.8437 115.472 17.6307 115.228 17.3642V18.0269H113.239V14.42H115.384C115.384 14.8846 115.541 15.2539 115.855 15.5265C116.17 15.799 116.547 15.936 116.99 15.936C117.419 15.936 117.792 15.8258 118.107 15.6054C118.421 15.385 118.578 15.1229 118.578 14.8221C118.578 14.4736 118.491 14.2011 118.317 14.003C118.142 13.8049 117.913 13.6397 117.628 13.5071C117.343 13.3731 117.014 13.2539 116.643 13.1497C116.27 13.0455 115.893 12.9114 115.51 12.7491C114.824 12.4468 114.254 12.0373 113.799 11.5205C113.346 11.0038 113.12 10.3559 113.12 9.57709C113.12 9.08863 113.212 8.63592 113.398 8.21746C113.585 7.79899 113.834 7.4371 114.148 7.12884C114.463 6.82057 114.831 6.5793 115.256 6.40507C115.681 6.23083 116.137 6.14445 116.625 6.14445C117.16 6.14445 117.601 6.23979 117.95 6.4319C118.299 6.62401 118.554 6.81759 118.718 7.01566V6.35297H120.655V9.64558H118.387C118.387 9.22712 118.224 8.89354 117.898 8.64335C117.573 8.39316 117.235 8.26807 116.886 8.26807C116.525 8.26807 116.212 8.39018 115.943 8.63441C115.677 8.87864 115.542 9.18693 115.542 9.55774C115.542 9.88239 115.638 10.1385 115.83 10.3247C116.022 10.5108 116.271 10.6642 116.58 10.7863C116.889 10.9085 117.229 11.0187 117.6 11.1169C117.973 11.2152 118.338 11.3463 118.699 11.5086C119.35 11.8109 119.911 12.2234 120.382 12.7461C120.853 13.2703 121.089 13.8973 121.089 14.63Z" fill="#282828"/>
<path d="M126.74 11.3358H125.327V15.9702H126.374V18.0268H123.025V11.3358H121.822V9.27924H123.025V6.35147H125.327V9.27924H126.74V11.3358Z" fill="#282828"/>
<path d="M132.218 18.2357C131.566 18.2357 130.96 18.1165 130.395 17.8783C129.831 17.64 129.336 17.3124 128.911 16.8939C128.486 16.4754 128.152 15.9885 127.908 15.43C127.663 14.873 127.541 14.2803 127.541 13.6534C127.541 13.0264 127.663 12.4337 127.908 11.8767C128.152 11.3198 128.486 10.8313 128.911 10.4129C129.336 9.9944 129.83 9.66676 130.395 9.42849C130.958 9.19021 131.566 9.07109 132.218 9.07109C132.892 9.07109 133.526 9.19021 134.119 9.42849C134.712 9.66676 135.23 9.9944 135.671 10.4129C136.112 10.8313 136.461 11.3183 136.718 11.8767C136.972 12.4337 137.101 13.0264 137.101 13.6534C137.101 14.2803 136.972 14.873 136.718 15.43C136.461 15.987 136.112 16.4754 135.671 16.8939C135.228 17.3124 134.711 17.64 134.119 17.8783C133.526 18.1165 132.892 18.2357 132.218 18.2357ZM134.73 13.6534C134.73 13.3168 134.666 12.9996 134.538 12.7033C134.41 12.4069 134.238 12.1523 134.023 11.9363C133.809 11.7219 133.552 11.5506 133.256 11.4226C132.959 11.2945 132.647 11.2304 132.322 11.2304C131.997 11.2304 131.686 11.2945 131.389 11.4226C131.092 11.5506 130.836 11.7219 130.621 11.9363C130.407 12.1508 130.235 12.4069 130.107 12.7033C129.979 12.9996 129.915 13.3168 129.915 13.6534C129.915 13.9899 129.979 14.3071 130.107 14.6035C130.235 14.8998 130.407 15.156 130.621 15.3704C130.836 15.5849 131.092 15.7561 131.389 15.8842C131.686 16.0123 131.997 16.0763 132.322 16.0763C132.647 16.0763 132.959 16.0123 133.256 15.8842C133.552 15.7561 133.807 15.5849 134.023 15.3704C134.238 15.156 134.41 14.8998 134.538 14.6035C134.666 14.3071 134.73 13.9914 134.73 13.6534Z" fill="#282828"/>
<path d="M139.003 15.9706V11.3362H137.922V9.27957H141.202V10.2907C141.401 9.98843 141.702 9.70993 142.109 9.45379C142.516 9.19914 142.923 9.07109 143.33 9.07109H143.749V11.2319H143.33C142.772 11.2319 142.295 11.4553 141.9 11.9021C141.505 12.3488 141.307 12.8864 141.307 13.5134V15.9706H142.388V18.0272H137.922V15.9706H139.003Z" fill="#282828"/>
<path d="M149.121 16.0758C149.458 16.0758 149.778 16.0058 150.079 15.8673C150.382 15.7273 150.643 15.5427 150.864 15.3104H153.568C153.394 15.7407 153.152 16.1324 152.844 16.4869C152.535 16.8413 152.183 17.1495 151.788 17.4102C151.393 17.6708 150.959 17.8748 150.488 18.0192C150.017 18.1637 149.525 18.2367 149.013 18.2367C148.362 18.2367 147.755 18.1175 147.19 17.8792C146.626 17.641 146.131 17.3134 145.707 16.8949C145.282 16.4764 144.948 15.9894 144.703 15.431C144.459 14.874 144.336 14.2813 144.336 13.6544C144.336 13.0274 144.459 12.4347 144.703 11.8777C144.948 11.3208 145.282 10.8323 145.707 10.4139C146.131 9.99539 146.625 9.66775 147.19 9.42948C147.754 9.1912 148.362 9.07208 149.013 9.07208C149.687 9.07208 150.321 9.1912 150.914 9.42948C151.508 9.66775 152.025 9.99539 152.466 10.4139C152.908 10.8323 153.257 11.3193 153.513 11.8777C153.768 12.4347 153.896 13.0274 153.896 13.6544C153.896 13.8986 153.866 14.1652 153.81 14.4556H146.85C147.013 14.9321 147.3 15.3208 147.713 15.6231C148.129 15.9239 148.597 16.0758 149.121 16.0758ZM149.121 11.2314C148.644 11.2314 148.211 11.3625 147.821 11.6231C147.432 11.8837 147.138 12.2247 146.94 12.6417H151.3C151.102 12.2232 150.808 11.8837 150.419 11.6231C150.03 11.3625 149.598 11.2314 149.121 11.2314Z" fill="#282828"/>
<path d="M39.6925 26.7447C39.3496 26.7447 39.0544 26.6643 38.8069 26.502C38.5594 26.3397 38.3686 26.1178 38.2359 25.8333C38.1017 25.5489 38.0361 25.2257 38.0361 24.8594C38.0361 24.4886 38.1047 24.1595 38.2419 23.875C38.379 23.5906 38.5714 23.3672 38.8189 23.2064C39.0663 23.0455 39.3541 22.9651 39.6851 22.9651C39.943 22.9651 40.1741 23.0128 40.3813 23.1081C40.5886 23.2034 40.757 23.3359 40.8882 23.5072C41.0194 23.6784 41.1014 23.878 41.1342 24.1073H40.5722C40.5289 23.9406 40.435 23.7931 40.2874 23.6636C40.1398 23.534 39.943 23.47 39.6955 23.47C39.4763 23.47 39.284 23.5265 39.12 23.6397C38.956 23.7529 38.8278 23.9123 38.7369 24.1178C38.6459 24.3233 38.5997 24.5645 38.5997 24.84C38.5997 25.123 38.6444 25.3687 38.7339 25.5772C38.8233 25.7872 38.9501 25.9495 39.1155 26.0656C39.281 26.1818 39.4734 26.2399 39.6955 26.2399C39.8416 26.2399 39.9743 26.2146 40.0936 26.1639C40.2128 26.1133 40.3142 26.0403 40.3962 25.945C40.4782 25.8497 40.5379 25.7351 40.5722 25.6025H41.1342C41.1029 25.8184 41.0239 26.012 40.9002 26.1848C40.7749 26.3575 40.6109 26.493 40.4067 26.5943C40.1994 26.6941 39.9624 26.7447 39.6925 26.7447Z" fill="#282828"/>
<path d="M42.3136 28.039C42.2182 28.039 42.1332 28.0316 42.0586 28.0167C41.9841 28.0018 41.9319 27.9869 41.9036 27.972L42.0467 27.4776C42.1839 27.5118 42.3046 27.5252 42.409 27.5148C42.5134 27.5059 42.6073 27.4582 42.6893 27.3763C42.7713 27.2944 42.8458 27.1589 42.9144 26.9728L43.0188 26.6868L41.665 23.0129H42.2748L43.2857 25.9258H43.3244L44.3353 23.0129H44.945L43.3915 27.2006C43.3214 27.3897 43.235 27.5461 43.1321 27.6712C43.0292 27.7963 42.9099 27.8886 42.7743 27.9482C42.6371 28.0093 42.4835 28.039 42.3136 28.039Z" fill="#282828"/>
<path d="M45.6875 26.6673V23.0113H48.565V26.6673H48.0029V23.5355H46.2496V26.6673H45.6875Z" fill="#282828"/>
<path d="M51.1294 26.7447C50.7776 26.7447 50.4734 26.6658 50.2185 26.5109C49.9635 26.3545 49.7667 26.1356 49.6296 25.8542C49.4924 25.5727 49.4238 25.2451 49.4238 24.8698C49.4238 24.496 49.4924 24.1654 49.6296 23.878C49.7667 23.5921 49.9591 23.3672 50.2066 23.2064C50.454 23.0455 50.7418 22.9651 51.0728 22.9651C51.2636 22.9651 51.4515 22.9964 51.6378 23.0604C51.8242 23.1244 51.9927 23.2272 52.1447 23.3687C52.2968 23.5102 52.4191 23.6978 52.51 23.9316C52.6009 24.1654 52.6457 24.4513 52.6457 24.7923V25.0306H49.8249V24.5451H52.0732C52.0732 24.3396 52.0329 24.155 51.9509 23.9927C51.8689 23.8303 51.7526 23.7037 51.6035 23.6099C51.4544 23.5161 51.277 23.4699 51.0728 23.4699C50.8491 23.4699 50.6553 23.5251 50.4928 23.6353C50.3303 23.7455 50.205 23.8884 50.1171 24.0641C50.0291 24.2399 49.9859 24.429 49.9859 24.63V24.9532C49.9859 25.2287 50.0336 25.4625 50.1305 25.6546C50.2259 25.8452 50.3601 25.9912 50.5316 26.0895C50.703 26.1878 50.9028 26.2384 51.1294 26.2384C51.277 26.2384 51.4112 26.2175 51.5305 26.1758C51.6498 26.1341 51.7541 26.0701 51.8421 25.9852C51.93 25.9003 51.9971 25.7946 52.0448 25.668L52.5875 25.8199C52.5309 26.0046 52.434 26.1654 52.2998 26.3039C52.1641 26.4424 51.9986 26.5511 51.7988 26.6271C51.6005 26.706 51.3769 26.7447 51.1294 26.7447Z" fill="#282828"/>
<path d="M53.5015 28.0388V23.0127H54.0442V23.5936H54.1112C54.153 23.5295 54.2096 23.4491 54.2842 23.3493C54.3587 23.2495 54.4646 23.1617 54.6032 23.0827C54.7419 23.0038 54.9312 22.9651 55.1698 22.9651C55.4784 22.9651 55.7498 23.0425 55.9853 23.1959C56.2209 23.3493 56.4043 23.5682 56.5355 23.8497C56.6667 24.1326 56.7337 24.4647 56.7337 24.849C56.7337 25.2361 56.6681 25.5712 56.5355 25.8542C56.4028 26.1371 56.2209 26.356 55.9868 26.5109C55.7527 26.6658 55.4844 26.7432 55.1787 26.7432C54.9432 26.7432 54.7553 26.7045 54.6137 26.6256C54.472 26.5466 54.3632 26.4573 54.2872 26.356C54.2111 26.2547 54.1515 26.1714 54.1112 26.1043H54.0635V28.0373H53.5015V28.0388ZM54.0546 24.84C54.0546 25.1155 54.0948 25.3598 54.1754 25.5697C54.2559 25.7797 54.3751 25.9435 54.5302 26.0626C54.6852 26.1803 54.8761 26.2399 55.1027 26.2399C55.3383 26.2399 55.5351 26.1773 55.6931 26.0537C55.8511 25.9286 55.9704 25.7603 56.0509 25.5489C56.1314 25.3374 56.1717 25.1006 56.1717 24.8415C56.1717 24.5839 56.1329 24.353 56.0539 24.146C55.9749 23.9391 55.8571 23.7752 55.6991 23.6531C55.541 23.5325 55.3427 23.4714 55.1042 23.4714C54.8761 23.4714 54.6838 23.5295 54.5272 23.6442C54.3722 23.7588 54.2544 23.9197 54.1739 24.1252C54.0934 24.3307 54.0546 24.5675 54.0546 24.84Z" fill="#282828"/>
<path d="M58.1529 23.0128V26.6688H57.5908V23.0128H58.1529ZM59.5916 25.9063L60.8693 23.0128H61.4031L59.8212 26.6688H59.3635L57.81 23.0128H58.3348L59.5916 25.9063ZM61.0304 26.6673V23.0113H61.5924V26.6673H61.0304Z" fill="#282828"/>
<path d="M63.6991 26.7538C63.4665 26.7538 63.2562 26.7091 63.0684 26.6213C62.879 26.5334 62.73 26.4054 62.6182 26.2386C62.5063 26.0718 62.4512 25.8692 62.4512 25.631C62.4512 25.421 62.4929 25.2512 62.5749 25.1202C62.6569 24.9891 62.7672 24.8864 62.9059 24.8119C63.0445 24.7374 63.1966 24.6808 63.3651 24.6436C63.5321 24.6064 63.702 24.5766 63.872 24.5543C64.0941 24.526 64.2745 24.5036 64.4147 24.4888C64.5533 24.4739 64.6547 24.4485 64.7203 24.4113C64.7844 24.3741 64.8172 24.3115 64.8172 24.2207V24.2013C64.8172 23.966 64.7531 23.7843 64.6249 23.6548C64.4967 23.5252 64.3044 23.4597 64.0449 23.4597C63.7766 23.4597 63.5664 23.5178 63.4143 23.6354C63.2622 23.7531 63.1549 23.8781 63.0923 24.0107L62.5585 23.8201C62.6539 23.5982 62.7806 23.424 62.9402 23.3004C63.0997 23.1753 63.2741 23.0889 63.465 23.0383C63.6543 22.9876 63.8422 22.9638 64.0256 22.9638C64.1433 22.9638 64.279 22.9772 64.4311 23.0055C64.5846 23.0338 64.7322 23.0904 64.8769 23.1753C65.02 23.2616 65.1408 23.3897 65.2347 23.5624C65.3286 23.7352 65.3778 23.9675 65.3778 24.2579V26.666H64.8157V26.1715H64.7874C64.7486 26.2505 64.686 26.3354 64.5966 26.4262C64.5071 26.5171 64.3893 26.593 64.2417 26.657C64.0912 26.7225 63.9108 26.7538 63.6991 26.7538ZM63.784 26.249C64.0062 26.249 64.194 26.2058 64.3476 26.1179C64.5012 26.0301 64.6174 25.9184 64.695 25.7799C64.7725 25.6414 64.8128 25.4969 64.8128 25.345V24.8312C64.7889 24.8595 64.7367 24.8863 64.6562 24.9087C64.5757 24.931 64.4833 24.9519 64.3804 24.9683C64.276 24.9847 64.1761 24.9996 64.0777 25.0115C63.9793 25.0234 63.9003 25.0338 63.8407 25.0412C63.6946 25.0606 63.5589 25.0904 63.4322 25.1336C63.3055 25.1753 63.2041 25.2378 63.1265 25.3212C63.049 25.4046 63.0103 25.5178 63.0103 25.6607C63.0103 25.8558 63.0833 26.0033 63.2279 26.1015C63.3755 26.1998 63.5604 26.249 63.784 26.249Z" fill="#282828"/>
<path d="M66.4053 28.0388V23.0127H66.948V23.5936H67.0151C67.0568 23.5295 67.1135 23.4491 67.188 23.3493C67.2625 23.2495 67.3684 23.1617 67.5071 23.0827C67.6457 23.0038 67.8351 22.9651 68.0736 22.9651C68.3822 22.9651 68.6536 23.0425 68.8891 23.1959C69.1247 23.3493 69.3081 23.5682 69.4393 23.8497C69.5705 24.1326 69.6376 24.4647 69.6376 24.849C69.6376 25.2361 69.572 25.5712 69.4393 25.8542C69.3066 26.1371 69.1247 26.356 68.8906 26.5109C68.6565 26.6658 68.3882 26.7432 68.0825 26.7432C67.847 26.7432 67.6591 26.7045 67.5175 26.6256C67.3759 26.5466 67.267 26.4573 67.191 26.356C67.1149 26.2547 67.0553 26.1714 67.0151 26.1043H66.9673V28.0373H66.4053V28.0388ZM66.9584 24.84C66.9584 25.1155 66.9987 25.3598 67.0792 25.5697C67.1597 25.7797 67.2789 25.9435 67.434 26.0626C67.5891 26.1803 67.7799 26.2399 68.0065 26.2399C68.2421 26.2399 68.4389 26.1773 68.5969 26.0537C68.755 25.9286 68.8742 25.7603 68.9547 25.5489C69.0352 25.3374 69.0755 25.1006 69.0755 24.8415C69.0755 24.5839 69.0367 24.353 68.9577 24.146C68.8787 23.9391 68.7609 23.7752 68.6029 23.6531C68.4448 23.5325 68.2465 23.4714 68.008 23.4714C67.7799 23.4714 67.5876 23.5295 67.431 23.6442C67.276 23.7588 67.1582 23.9197 67.0777 24.1252C66.9972 24.3307 66.9584 24.5675 66.9584 24.84Z" fill="#282828"/>
<path d="M70.4932 26.6673V23.0113H71.0552V24.6003H71.4265L72.7414 23.0113H73.466L71.9885 24.773L73.4854 26.6673H72.7608L71.5607 25.1245H71.0552V26.6673H70.4932Z" fill="#282828"/>
<path d="M75.4771 26.7447C75.1252 26.7447 74.8211 26.6658 74.5661 26.5109C74.3112 26.3545 74.1144 26.1356 73.9772 25.8542C73.8401 25.5727 73.7715 25.2451 73.7715 24.8698C73.7715 24.496 73.8401 24.1654 73.9772 23.878C74.1144 23.5921 74.3067 23.3672 74.5542 23.2064C74.8017 23.0455 75.0895 22.9651 75.4204 22.9651C75.6113 22.9651 75.7991 22.9964 75.9855 23.0604C76.1718 23.1244 76.3403 23.2272 76.4924 23.3687C76.6445 23.5102 76.7667 23.6978 76.8577 23.9316C76.9486 24.1654 76.9933 24.4513 76.9933 24.7923V25.0306H74.1725V24.5451H76.4208C76.4208 24.3396 76.3806 24.155 76.2986 23.9927C76.2166 23.8303 76.1003 23.7037 75.9512 23.6099C75.8021 23.5161 75.6247 23.4699 75.4204 23.4699C75.1968 23.4699 75.003 23.5251 74.8405 23.6353C74.678 23.7455 74.5527 23.8884 74.4648 24.0641C74.3768 24.2399 74.3336 24.429 74.3336 24.63V24.9532C74.3336 25.2287 74.3813 25.4625 74.4782 25.6546C74.5736 25.8452 74.7078 25.9912 74.8792 26.0895C75.0507 26.1878 75.2505 26.2384 75.4771 26.2384C75.6247 26.2384 75.7589 26.2175 75.8781 26.1758C75.9974 26.1341 76.1018 26.0701 76.1897 25.9852C76.2777 25.9003 76.3448 25.7946 76.3925 25.668L76.9352 25.8199C76.8785 26.0046 76.7816 26.1654 76.6474 26.3039C76.5118 26.4424 76.3463 26.5511 76.1465 26.6271C75.9482 26.706 75.7261 26.7447 75.4771 26.7447Z" fill="#282828"/>
<path d="M77.5078 23.5355V23.0113H80.4807V23.5355H79.2805V26.6673H78.7184V23.5355H77.5078Z" fill="#282828"/>
<path d="M83.7501 23.0128V26.6688H83.188V23.0128H83.7501ZM85.1888 25.9063L86.4665 23.0128H87.0002L85.4184 26.6688H84.9607L83.4071 23.0128H83.9319L85.1888 25.9063ZM86.6275 26.6673V23.0113H87.1896V26.6673H86.6275Z" fill="#282828"/>
<path d="M89.7539 26.7447C89.4021 26.7447 89.0979 26.6658 88.843 26.5109C88.588 26.3545 88.3912 26.1356 88.2541 25.8542C88.1169 25.5727 88.0483 25.2451 88.0483 24.8698C88.0483 24.496 88.1169 24.1654 88.2541 23.878C88.3912 23.5921 88.5836 23.3672 88.8311 23.2064C89.0786 23.0455 89.3663 22.9651 89.6973 22.9651C89.8881 22.9651 90.076 22.9964 90.2623 23.0604C90.4487 23.1244 90.6172 23.2272 90.7692 23.3687C90.9213 23.5102 91.0436 23.6978 91.1345 23.9316C91.2255 24.1654 91.2702 24.4513 91.2702 24.7923V25.0306H88.4494V24.5451H90.6977C90.6977 24.3396 90.6574 24.155 90.5754 23.9927C90.4934 23.8303 90.3771 23.7037 90.228 23.6099C90.079 23.5161 89.9015 23.4699 89.6973 23.4699C89.4737 23.4699 89.2798 23.5251 89.1173 23.6353C88.9548 23.7455 88.8296 23.8884 88.7416 24.0641C88.6537 24.2399 88.6104 24.429 88.6104 24.63V24.9532C88.6104 25.2287 88.6581 25.4625 88.755 25.6546C88.8504 25.8452 88.9846 25.9912 89.1561 26.0895C89.3275 26.1878 89.5273 26.2384 89.7539 26.2384C89.9015 26.2384 90.0357 26.2175 90.155 26.1758C90.2743 26.1341 90.3786 26.0701 90.4666 25.9852C90.5545 25.9003 90.6216 25.7946 90.6693 25.668L91.212 25.8199C91.1554 26.0046 91.0585 26.1654 90.9243 26.3039C90.7886 26.4424 90.6231 26.5511 90.4234 26.6271C90.2236 26.706 90.0014 26.7447 89.7539 26.7447Z" fill="#282828"/>
<path d="M92.4513 23.0129L93.3279 24.5081L94.2046 23.0129H94.8531L93.6708 24.8402L94.8531 26.6675H94.2046L93.3279 25.2497L92.4513 26.6675H91.8027L92.9656 24.8402L91.8027 23.0129H92.4513Z" fill="#282828"/>
<path d="M96.7298 26.7538C96.4972 26.7538 96.287 26.7091 96.0992 26.6213C95.9098 26.5334 95.7607 26.4054 95.6489 26.2386C95.5371 26.0718 95.4819 25.8692 95.4819 25.631C95.4819 25.421 95.5237 25.2512 95.6057 25.1202C95.6877 24.9891 95.798 24.8864 95.9367 24.8119C96.0753 24.7374 96.2274 24.6808 96.3959 24.6436C96.5628 24.6064 96.7328 24.5766 96.9028 24.5543C97.1249 24.526 97.3053 24.5036 97.4455 24.4888C97.5841 24.4739 97.6855 24.4485 97.7511 24.4113C97.8152 24.3741 97.848 24.3115 97.848 24.2207V24.2013C97.848 23.966 97.7839 23.7843 97.6557 23.6548C97.5275 23.5252 97.3351 23.4597 97.0757 23.4597C96.8074 23.4597 96.5971 23.5178 96.4451 23.6354C96.293 23.7531 96.1856 23.8781 96.123 24.0107L95.5893 23.8201C95.6847 23.5982 95.8114 23.424 95.971 23.3004C96.1305 23.1753 96.3049 23.0889 96.4958 23.0383C96.6851 22.9876 96.873 22.9638 97.0563 22.9638C97.1741 22.9638 97.3098 22.9772 97.4619 23.0055C97.6154 23.0338 97.763 23.0904 97.9076 23.1753C98.0508 23.2616 98.1715 23.3897 98.2655 23.5624C98.3594 23.7352 98.4086 23.9675 98.4086 24.2579V26.666H97.8465V26.1715H97.8182C97.7794 26.2505 97.7168 26.3354 97.6274 26.4262C97.5379 26.5171 97.4201 26.593 97.2725 26.657C97.1219 26.7225 96.9415 26.7538 96.7298 26.7538ZM96.8148 26.249C97.037 26.249 97.2248 26.2058 97.3784 26.1179C97.5319 26.0301 97.6482 25.9184 97.7258 25.7799C97.8033 25.6414 97.8435 25.4969 97.8435 25.345V24.8312C97.8197 24.8595 97.7675 24.8863 97.687 24.9087C97.6065 24.931 97.514 24.9519 97.4112 24.9683C97.3068 24.9847 97.2069 24.9996 97.1085 25.0115C97.0101 25.0234 96.9311 25.0338 96.8715 25.0412C96.7254 25.0606 96.5897 25.0904 96.463 25.1336C96.3362 25.1753 96.2348 25.2378 96.1573 25.3212C96.0798 25.4046 96.041 25.5178 96.041 25.6607C96.041 25.8558 96.1141 26.0033 96.2587 26.1015C96.4063 26.1998 96.5912 26.249 96.8148 26.249Z" fill="#282828"/>
<path d="M99.9981 23.0129V26.669H99.436V23.0129H99.9981ZM101.886 24.5826V25.1068H99.8654V24.5826H101.886ZM102.313 23.0129V26.669H101.751V23.0129H102.313Z" fill="#282828"/>
<path d="M103.906 25.8395L105.668 23.0129H106.317V26.669H105.755V23.8424L104.001 26.669H103.344V23.0129H103.906V25.8395Z" fill="#282828"/>
<path d="M107.117 25.7352H107.718C107.73 25.9005 107.806 26.0256 107.943 26.112C108.08 26.1983 108.259 26.2401 108.48 26.2401C108.705 26.2401 108.899 26.1939 109.058 26.1001C109.218 26.0062 109.298 25.8573 109.298 25.6488C109.298 25.5267 109.269 25.4195 109.207 25.3287C109.146 25.2378 109.063 25.1663 108.952 25.1157C108.842 25.0651 108.714 25.0398 108.565 25.0398H107.936V24.5349H108.565C108.788 24.5349 108.954 24.4843 109.061 24.383C109.169 24.2817 109.222 24.1552 109.222 24.0018C109.222 23.838 109.164 23.7069 109.048 23.6086C108.932 23.5088 108.768 23.4597 108.554 23.4597C108.34 23.4597 108.161 23.5073 108.018 23.6041C107.875 23.6994 107.8 23.823 107.791 23.9735H107.201C107.207 23.7769 107.268 23.6026 107.381 23.4507C107.496 23.2988 107.651 23.1797 107.848 23.0933C108.045 23.007 108.27 22.9638 108.525 22.9638C108.783 22.9638 109.006 23.0085 109.196 23.0978C109.385 23.1872 109.532 23.3093 109.637 23.4612C109.741 23.6146 109.793 23.7873 109.793 23.9809C109.793 24.1864 109.735 24.3532 109.619 24.4813C109.503 24.6079 109.358 24.6987 109.184 24.7523V24.7896C109.322 24.7985 109.442 24.8432 109.544 24.9221C109.647 25.001 109.726 25.1023 109.784 25.2289C109.841 25.3555 109.871 25.494 109.871 25.6459C109.871 25.8678 109.811 26.0613 109.692 26.2252C109.573 26.389 109.409 26.5171 109.201 26.6064C108.994 26.6958 108.756 26.7404 108.489 26.7404C108.229 26.7404 107.998 26.6973 107.793 26.6124C107.588 26.5275 107.426 26.4098 107.305 26.2579C107.186 26.1105 107.123 25.9348 107.117 25.7352Z" fill="#282828"/>
<path d="M111.225 23.0128V26.6688H110.663V23.0128H111.225ZM112.663 25.9063L113.941 23.0128H114.475L112.893 26.6688H112.435L110.882 23.0128H111.407L112.663 25.9063ZM114.102 26.6673V23.0113H114.664V26.6673H114.102Z" fill="#282828"/>
<path d="M117.181 26.7447C116.85 26.7447 116.561 26.6658 116.313 26.5094C116.064 26.353 115.87 26.1326 115.732 25.8497C115.593 25.5667 115.523 25.2376 115.523 24.8594C115.523 24.4781 115.593 24.146 115.732 23.8616C115.87 23.5771 116.064 23.3568 116.313 23.2004C116.562 23.044 116.851 22.9651 117.181 22.9651C117.51 22.9651 117.801 23.044 118.05 23.2004C118.299 23.3568 118.493 23.5786 118.631 23.8616C118.77 24.146 118.84 24.4781 118.84 24.8594C118.84 25.2376 118.77 25.5667 118.631 25.8497C118.493 26.1326 118.299 26.3515 118.05 26.5094C117.801 26.6673 117.51 26.7447 117.181 26.7447ZM117.181 26.2399C117.431 26.2399 117.639 26.1758 117.801 26.0478C117.964 25.9197 118.083 25.7499 118.16 25.5414C118.238 25.3314 118.277 25.1051 118.277 24.8609C118.277 24.6166 118.238 24.3888 118.16 24.1773C118.083 23.9658 117.962 23.7961 117.801 23.665C117.639 23.5355 117.433 23.4699 117.181 23.4699C116.93 23.4699 116.723 23.5355 116.562 23.665C116.4 23.7946 116.28 23.9658 116.203 24.1773C116.125 24.3888 116.087 24.6166 116.087 24.8609C116.087 25.1051 116.125 25.3314 116.203 25.5414C116.28 25.7514 116.401 25.9197 116.562 26.0478C116.723 26.1758 116.93 26.2399 117.181 26.2399Z" fill="#282828"/>
<path d="M119.696 26.6673V23.0113H121.193C121.586 23.0113 121.899 23.1006 122.132 23.2779C122.365 23.4551 122.479 23.6904 122.479 23.9823C122.479 24.2041 122.414 24.3754 122.281 24.4975C122.15 24.6181 121.98 24.7016 121.774 24.7433C121.91 24.7626 122.041 24.8103 122.168 24.8862C122.294 24.9622 122.402 25.0664 122.485 25.199C122.569 25.3315 122.612 25.4938 122.612 25.6859C122.612 25.8735 122.564 26.0404 122.469 26.1878C122.373 26.3352 122.236 26.4514 122.059 26.5378C121.881 26.6241 121.668 26.6658 121.421 26.6658H119.696V26.6673ZM120.23 24.5452H121.193C121.343 24.5452 121.473 24.5243 121.58 24.4826C121.688 24.441 121.771 24.3799 121.829 24.3025C121.887 24.225 121.916 24.1312 121.916 24.0225C121.916 23.8691 121.852 23.747 121.723 23.6591C121.595 23.5712 121.418 23.5266 121.193 23.5266H120.23V24.5452ZM120.23 26.1535H121.421C121.615 26.1535 121.767 26.1074 121.876 26.015C121.986 25.9227 122.04 25.7976 122.04 25.6398C122.04 25.4506 121.984 25.3017 121.876 25.193C121.767 25.0843 121.615 25.0307 121.421 25.0307H120.23V26.1535Z" fill="#282828"/>
<path d="M125.91 25.8395L127.674 23.0129H128.322V26.669H127.76V23.8424L126.007 26.669H125.35V23.0129H125.912V25.8395H125.91Z" fill="#282828"/>
<path d="M131.799 23.0128V26.6688H131.237V23.0128H131.799ZM133.238 25.9063L134.516 23.0128H135.05L133.468 26.6688H133.01L131.456 23.0128H131.981L133.238 25.9063ZM134.678 26.6673V23.0113H135.24V26.6673H134.678Z" fill="#282828"/>
<path d="M137.346 26.7538C137.113 26.7538 136.903 26.7091 136.715 26.6213C136.526 26.5334 136.375 26.4054 136.265 26.2386C136.153 26.0718 136.098 25.8692 136.098 25.631C136.098 25.421 136.139 25.2512 136.221 25.1202C136.303 24.9891 136.414 24.8864 136.552 24.8119C136.691 24.7374 136.843 24.6808 137.012 24.6436C137.18 24.6064 137.349 24.5766 137.518 24.5543C137.741 24.526 137.921 24.5036 138.061 24.4888C138.2 24.4739 138.301 24.4485 138.365 24.4113C138.429 24.3741 138.462 24.3115 138.462 24.2207V24.2013C138.462 23.966 138.398 23.7843 138.27 23.6548C138.142 23.5252 137.948 23.4597 137.69 23.4597C137.422 23.4597 137.211 23.5178 137.059 23.6354C136.907 23.7531 136.8 23.8781 136.737 24.0107L136.204 23.8201C136.299 23.5982 136.426 23.424 136.587 23.3004C136.746 23.1753 136.921 23.0889 137.111 23.0383C137.301 22.9876 137.489 22.9638 137.672 22.9638C137.79 22.9638 137.926 22.9772 138.078 23.0055C138.23 23.0338 138.379 23.0904 138.523 23.1753C138.666 23.2616 138.787 23.3897 138.883 23.5624C138.978 23.7352 139.026 23.9675 139.026 24.2579V26.666H138.464V26.1715H138.435C138.397 26.2505 138.334 26.3354 138.245 26.4262C138.155 26.5171 138.037 26.593 137.89 26.657C137.739 26.7225 137.559 26.7538 137.346 26.7538ZM137.432 26.249C137.654 26.249 137.842 26.2058 137.996 26.1179C138.149 26.0301 138.265 25.9184 138.343 25.7799C138.42 25.6414 138.461 25.4969 138.461 25.345V24.8312C138.437 24.8595 138.385 24.8863 138.304 24.9087C138.224 24.931 138.131 24.9519 138.028 24.9683C137.924 24.9847 137.824 24.9996 137.726 25.0115C137.627 25.0234 137.548 25.0338 137.489 25.0412C137.343 25.0606 137.207 25.0904 137.08 25.1336C136.953 25.1753 136.852 25.2378 136.776 25.3212C136.7 25.4046 136.66 25.5178 136.66 25.6607C136.66 25.8558 136.733 26.0033 136.877 26.1015C137.024 26.1998 137.208 26.249 137.432 26.249Z" fill="#282828"/>
<path d="M140.053 23.0129H140.615V26.1447H141.997V23.0129H142.559V26.1447H143.941V23.0129H144.503V26.669H140.053V23.0129Z" fill="#282828"/>
<path d="M146.094 25.8395L147.858 23.0129H148.507V26.669H147.944V23.8424L146.191 26.669H145.534V23.0129H146.096V25.8395H146.094Z" fill="#282828"/>
<path d="M150.097 23.0129V26.669H149.535V23.0129H150.097ZM151.983 24.5826V25.1068H149.963V24.5826H151.983ZM152.413 23.0129V26.669H151.851V23.0129H152.413Z" fill="#282828"/>
<path d="M15.3428 21.4787C12.2924 21.4787 9.81006 18.9992 9.81006 15.9523C9.81006 12.9054 12.2924 10.4258 15.3428 10.4258C18.3932 10.4258 20.8756 12.9054 20.8756 15.9523C20.8741 18.9992 18.3932 21.4787 15.3428 21.4787ZM15.3428 11.6187C12.9499 11.6187 11.0028 13.5636 11.0028 15.9538C11.0028 18.344 12.9499 20.2889 15.3428 20.2889C17.7357 20.2889 19.6828 18.344 19.6828 15.9538C19.6828 13.5636 17.7357 11.6187 15.3428 11.6187Z" fill="#282828"/>
<path d="M15.343 24.7506C14.5334 24.7506 13.7492 24.6389 13.0052 24.4349L11.9795 27.2867C12.4074 27.4401 12.8412 27.5637 13.2855 27.6575L13.7119 31.1125C13.7686 31.5906 14.1711 31.9301 14.6393 31.9033L18.2681 31.7335C18.7363 31.7052 19.106 31.315 19.1358 30.8683L19.2059 27.3955C20.0602 27.114 20.8877 26.7238 21.648 26.2443L24.3749 28.3992C24.7387 28.6598 25.2754 28.6241 25.5959 28.2815L28.0351 25.5935C28.3541 25.251 28.3571 24.6955 28.0142 24.3768L25.6064 21.8794C25.8211 21.4654 26.003 21.0484 26.155 20.6255C26.155 20.624 26.1565 20.6225 26.1565 20.6225L23.3506 19.6158C21.9596 22.6449 18.8988 24.7506 15.343 24.7506Z" fill="#282828"/>
<path d="M6.5346 15.9527C6.5346 15.4166 6.58529 14.8909 6.67773 14.3815L4.15809 13.4776C4.02242 13.8573 3.91061 14.2475 3.82861 14.6392L0.7141 15.0234C0.283228 15.0755 -0.0238845 15.4359 0.00146095 15.8573L0.15501 19.1202C0.180356 19.5417 0.532207 19.8738 0.934752 19.9006L4.06565 19.9631C4.31911 20.7315 4.67096 21.4761 5.12867 22.1686L3.18603 24.6213C2.91469 24.9653 2.94748 25.4479 3.29188 25.7189L5.71461 27.9125C6.02322 28.1999 6.52417 28.2029 6.81191 27.8946L9.06318 25.7293C9.42696 25.9169 9.79223 26.0778 10.165 26.2133C10.1709 26.2163 10.1784 26.2178 10.1843 26.2193L11.1027 23.6653C8.37886 22.1686 6.5346 19.2766 6.5346 15.9527Z" fill="#282828"/>
<path d="M30.5503 12.8967C30.525 12.4678 30.1746 12.1029 29.7557 12.1014L26.5666 12.0374C26.3072 11.2541 25.9494 10.4961 25.4827 9.78868L27.4626 7.28982C27.7385 6.93986 27.6952 6.47374 27.3538 6.17143L24.8849 3.93612C24.5703 3.64275 24.0604 3.63975 23.7667 3.95547L21.4722 6.16099C21.095 5.9659 20.7163 5.80059 20.3301 5.66209L19.4326 8.1595C22.237 9.63083 24.1513 12.5676 24.1513 15.9525C24.1513 16.5676 24.0872 17.1692 23.9665 17.7485L26.4712 18.6465C26.6098 18.2593 26.7217 17.8661 26.8066 17.4626L29.9793 17.0709C30.4191 17.0188 30.7307 16.651 30.7054 16.2221L30.5503 12.8967Z" fill="#282828"/>
<path d="M15.3428 7.15431C16.1718 7.15431 16.9724 7.27046 17.7327 7.48491L18.7406 4.68225C18.7376 4.68076 18.7332 4.67926 18.7302 4.67777C18.3008 4.5229 17.8639 4.40078 17.4167 4.30547L16.9843 0.802854C16.9262 0.317372 16.5192 -0.0266541 16.045 0.00164088L12.367 0.172922C11.8929 0.201217 11.5172 0.59733 11.4873 1.05005L11.4158 4.57056C10.5496 4.85648 9.71018 5.2511 8.93938 5.73658L6.17375 3.55193C5.78611 3.24664 5.27027 3.2943 4.9363 3.67107L2.46288 6.39633C2.13935 6.7448 2.13637 7.3062 2.48375 7.63085L4.92437 10.164C4.71266 10.5691 4.52779 10.9905 4.37124 11.4239C4.36975 11.4284 4.36826 11.4343 4.36677 11.4388L7.25167 12.4738C8.59945 9.34642 11.714 7.15431 15.3428 7.15431Z" fill="#FF0000"/>
</g>
<path d="M53.1643 18.027H48.3502V15.9704H49.6055V10.2727L46.5879 18.0255H44.7914L41.738 10.2891V15.9689H42.9933V18.0255H38.1792V15.9689H39.4345V8.40676H38.1792V6.35016H42.6445L45.6799 14.2087L48.7333 6.35016H53.1643V8.40676H51.909V15.9689H53.1643V18.027Z" fill="#FF0000"/>
<path d="M64.5546 18.0272H61.1703V17.086C60.9377 17.4106 60.5769 17.6846 60.0894 17.905C59.6004 18.1254 59.1292 18.2357 58.676 18.2357C58.0245 18.2357 57.4177 18.1165 56.8526 17.8783C56.2891 17.64 55.7941 17.3124 55.3692 16.8939C54.9443 16.4754 54.6103 15.9885 54.3658 15.43C54.1213 14.873 53.999 14.2803 53.999 13.6534C53.999 13.0264 54.1213 12.4337 54.3658 11.8767C54.6103 11.3198 54.9443 10.8313 55.3692 10.4129C55.7941 9.9944 56.2876 9.66676 56.8526 9.42849C57.4162 9.19021 58.0245 9.07109 58.676 9.07109C59.1412 9.07109 59.6212 9.18723 60.1147 9.41954C60.6082 9.65186 60.9959 9.94227 61.2747 10.2907V9.27957H64.5546V11.3362H63.4737V15.9706H64.5546V18.0272ZM61.1703 13.6534C61.1703 13.3168 61.1092 12.9996 60.9869 12.7033C60.8646 12.4069 60.6932 12.1523 60.4725 11.9363C60.2519 11.7219 59.9955 11.5506 59.7047 11.4226C59.414 11.2945 59.1054 11.2304 58.7804 11.2304C58.4554 11.2304 58.1438 11.2945 57.8471 11.4226C57.5504 11.5506 57.2939 11.7219 57.0792 11.9363C56.8646 12.1508 56.6931 12.4069 56.5649 12.7033C56.4366 12.9996 56.3726 13.3168 56.3726 13.6534C56.3726 13.9899 56.4366 14.3071 56.5649 14.6035C56.6931 14.8998 56.8646 15.156 57.0792 15.3704C57.2939 15.5849 57.5504 15.7561 57.8471 15.8842C58.1438 16.0123 58.4539 16.0763 58.7804 16.0763C59.1054 16.0763 59.414 16.0123 59.7047 15.8842C59.9955 15.7561 60.2519 15.5849 60.4725 15.3704C60.6932 15.156 60.8646 14.8998 60.9869 14.6035C61.1092 14.3071 61.1703 13.9914 61.1703 13.6534Z" fill="#FF0000"/>
<path d="M74.6199 14.873C74.4917 15.3377 74.277 15.774 73.9743 16.1791C73.6717 16.5856 73.3139 16.943 72.9009 17.2513C72.4879 17.5596 72.0376 17.8008 71.5486 17.9751C71.0596 18.1493 70.5721 18.2357 70.0831 18.2357C69.4196 18.2357 68.8009 18.1165 68.2254 17.8783C67.6499 17.64 67.1445 17.3124 66.7076 16.8939C66.2723 16.4754 65.9279 15.9885 65.6789 15.43C65.4284 14.873 65.3032 14.2803 65.3032 13.6534C65.3032 13.0264 65.4225 12.4337 65.661 11.8767C65.8996 11.3198 66.2246 10.8313 66.6376 10.4129C67.0506 9.9944 67.5306 9.66676 68.0763 9.42849C68.6235 9.19021 69.2094 9.07109 69.8385 9.07109C70.3156 9.07109 70.7957 9.16938 71.2773 9.36744C71.7603 9.56551 72.1122 9.80972 72.3328 10.0986V9.27957H74.2173V12.1716H72.2464C72.0257 11.8812 71.7231 11.6519 71.3399 11.4836C70.9567 11.3153 70.5557 11.2304 70.1367 11.2304C69.4509 11.2304 68.8695 11.4657 68.3924 11.9363C67.9153 12.4069 67.6767 12.9788 67.6767 13.6519C67.6767 13.9885 67.7408 14.3056 67.8691 14.602C67.9973 14.8983 68.1717 15.1545 68.3924 15.369C68.613 15.5834 68.8724 15.7547 69.1691 15.8827C69.4658 16.0108 69.7879 16.0748 70.1367 16.0748C70.5661 16.0748 70.9851 15.9617 71.3921 15.7353C71.7991 15.5089 72.0898 15.2215 72.2643 14.873H74.6199Z" fill="#FF0000"/>
<path d="M76.4506 15.9702V8.40808H75.3697V6.35147H78.754V10.1326C78.9985 9.81833 79.3534 9.56369 79.8185 9.36563C80.2837 9.16756 80.7429 9.06928 81.1961 9.06928C81.6613 9.06928 82.0996 9.16009 82.5126 9.34028C82.9256 9.52048 83.2864 9.76474 83.5935 10.0745C83.9021 10.3828 84.1436 10.7476 84.3181 11.1661C84.4925 11.5845 84.579 12.0328 84.579 12.5108V15.9688H85.6599V18.0254H81.1946V15.9688H82.2755V12.8906C82.2755 12.4244 82.1071 12.0313 81.7701 11.7096C81.4332 11.3895 81.0262 11.2286 80.5491 11.2286C80.0496 11.2286 79.6247 11.3895 79.2758 11.7096C78.927 12.0298 78.7525 12.4244 78.7525 12.8906V15.9688H79.8334V18.0254H75.3682V15.9688H76.4506V15.9702Z" fill="#FF0000"/>
<path d="M87.5624 15.9704V11.336H86.4814V9.27938H89.8658V15.9704H90.9467V18.027H86.4814V15.9704H87.5624ZM89.8658 8.54819H87.5638V6.3531H89.8658V8.54819Z" fill="#FF0000"/>
<path d="M102.023 18.0272H97.5916V15.9706H98.6725V12.9043C98.6725 12.4397 98.504 12.045 98.1671 11.7189C97.8301 11.3943 97.4231 11.2304 96.946 11.2304C96.4466 11.2304 96.0216 11.3928 95.6728 11.7189C95.3239 12.0436 95.1495 12.4397 95.1495 12.9043V15.9706H96.1961V18.0272H91.783V15.9706H92.8475V11.3362H91.7666V9.27957H95.0466V10.2907C95.3373 10.0003 95.7264 9.72484 96.2155 9.46273C96.7045 9.20063 97.1637 9.07109 97.5931 9.07109C98.0582 9.07109 98.4965 9.1619 98.9095 9.34061C99.3225 9.5208 99.6833 9.76804 99.9904 10.0808C100.299 10.395 100.541 10.7598 100.715 11.1783C100.889 11.5968 100.976 12.0435 100.976 12.5201V15.9706H102.023V18.0272Z" fill="#FF0000"/>
<path d="M107.552 16.0758C107.889 16.0758 108.21 16.0058 108.511 15.8673C108.814 15.7273 109.075 15.5427 109.295 15.3104H112C111.825 15.7407 111.584 16.1324 111.275 16.4869C110.967 16.8413 110.615 17.1495 110.22 17.4102C109.825 17.6708 109.391 17.8748 108.92 18.0192C108.448 18.1637 107.956 18.2367 107.445 18.2367C106.794 18.2367 106.187 18.1175 105.622 17.8792C105.058 17.641 104.563 17.3134 104.138 16.8949C103.713 16.4764 103.379 15.9894 103.135 15.431C102.89 14.874 102.768 14.2813 102.768 13.6544C102.768 13.0274 102.89 12.4347 103.135 11.8777C103.379 11.3208 103.713 10.8323 104.138 10.4139C104.563 9.99539 105.057 9.66775 105.622 9.42948C106.185 9.1912 106.794 9.07208 107.445 9.07208C108.119 9.07208 108.753 9.1912 109.346 9.42948C109.939 9.66775 110.457 9.99539 110.898 10.4139C111.339 10.8323 111.688 11.3193 111.945 11.8777C112.2 12.4347 112.328 13.0274 112.328 13.6544C112.328 13.8986 112.298 14.1652 112.241 14.4556H105.282C105.444 14.9321 105.732 15.3208 106.145 15.6231C106.561 15.9239 107.029 16.0758 107.552 16.0758ZM107.552 11.2314C107.075 11.2314 106.643 11.3625 106.252 11.6231C105.863 11.8837 105.569 12.2247 105.371 12.6417H109.732C109.534 12.2232 109.24 11.8837 108.851 11.6231C108.462 11.3625 108.029 11.2314 107.552 11.2314Z" fill="#FF0000"/>
<path d="M121.089 14.63C121.089 15.1646 120.999 15.6516 120.819 16.0939C120.638 16.5347 120.383 16.9159 120.051 17.2346C119.72 17.5548 119.32 17.8005 118.857 17.9748C118.391 18.149 117.868 18.2354 117.287 18.2354C116.996 18.2354 116.641 18.1564 116.222 18.0001C115.803 17.8437 115.472 17.6307 115.228 17.3642V18.0269H113.239V14.42H115.384C115.384 14.8846 115.541 15.2539 115.855 15.5265C116.17 15.799 116.547 15.936 116.99 15.936C117.419 15.936 117.792 15.8258 118.107 15.6054C118.421 15.385 118.578 15.1229 118.578 14.8221C118.578 14.4736 118.491 14.2011 118.317 14.003C118.142 13.8049 117.913 13.6397 117.628 13.5071C117.343 13.3731 117.014 13.2539 116.643 13.1497C116.27 13.0455 115.893 12.9114 115.51 12.7491C114.824 12.4468 114.254 12.0373 113.799 11.5205C113.346 11.0038 113.12 10.3559 113.12 9.57709C113.12 9.08863 113.212 8.63592 113.398 8.21746C113.585 7.79899 113.834 7.4371 114.148 7.12884C114.463 6.82057 114.831 6.5793 115.256 6.40507C115.681 6.23083 116.137 6.14445 116.625 6.14445C117.16 6.14445 117.601 6.23979 117.95 6.4319C118.299 6.62401 118.554 6.81759 118.718 7.01566V6.35297H120.655V9.64558H118.387C118.387 9.22712 118.224 8.89354 117.898 8.64335C117.573 8.39316 117.235 8.26807 116.886 8.26807C116.525 8.26807 116.212 8.39018 115.943 8.63441C115.677 8.87864 115.542 9.18693 115.542 9.55774C115.542 9.88239 115.638 10.1385 115.83 10.3247C116.022 10.5108 116.271 10.6642 116.58 10.7863C116.889 10.9085 117.229 11.0187 117.6 11.1169C117.973 11.2152 118.338 11.3463 118.699 11.5086C119.35 11.8109 119.911 12.2234 120.382 12.7461C120.853 13.2703 121.089 13.8973 121.089 14.63Z" fill="#282828"/>
<path d="M126.74 11.3358H125.327V15.9702H126.374V18.0268H123.025V11.3358H121.822V9.27924H123.025V6.35147H125.327V9.27924H126.74V11.3358Z" fill="#282828"/>
<path d="M132.218 18.2357C131.566 18.2357 130.96 18.1165 130.395 17.8783C129.831 17.64 129.336 17.3124 128.911 16.8939C128.486 16.4754 128.152 15.9885 127.908 15.43C127.663 14.873 127.541 14.2803 127.541 13.6534C127.541 13.0264 127.663 12.4337 127.908 11.8767C128.152 11.3198 128.486 10.8313 128.911 10.4129C129.336 9.9944 129.83 9.66676 130.395 9.42849C130.958 9.19021 131.566 9.07109 132.218 9.07109C132.892 9.07109 133.526 9.19021 134.119 9.42849C134.712 9.66676 135.23 9.9944 135.671 10.4129C136.112 10.8313 136.461 11.3183 136.718 11.8767C136.972 12.4337 137.101 13.0264 137.101 13.6534C137.101 14.2803 136.972 14.873 136.718 15.43C136.461 15.987 136.112 16.4754 135.671 16.8939C135.228 17.3124 134.711 17.64 134.119 17.8783C133.526 18.1165 132.892 18.2357 132.218 18.2357ZM134.73 13.6534C134.73 13.3168 134.666 12.9996 134.538 12.7033C134.41 12.4069 134.238 12.1523 134.023 11.9363C133.809 11.7219 133.552 11.5506 133.256 11.4226C132.959 11.2945 132.647 11.2304 132.322 11.2304C131.997 11.2304 131.686 11.2945 131.389 11.4226C131.092 11.5506 130.836 11.7219 130.621 11.9363C130.407 12.1508 130.235 12.4069 130.107 12.7033C129.979 12.9996 129.915 13.3168 129.915 13.6534C129.915 13.9899 129.979 14.3071 130.107 14.6035C130.235 14.8998 130.407 15.156 130.621 15.3704C130.836 15.5849 131.092 15.7561 131.389 15.8842C131.686 16.0123 131.997 16.0763 132.322 16.0763C132.647 16.0763 132.959 16.0123 133.256 15.8842C133.552 15.7561 133.807 15.5849 134.023 15.3704C134.238 15.156 134.41 14.8998 134.538 14.6035C134.666 14.3071 134.73 13.9914 134.73 13.6534Z" fill="#282828"/>
<path d="M139.003 15.9706V11.3362H137.922V9.27957H141.202V10.2907C141.401 9.98843 141.702 9.70993 142.109 9.45379C142.516 9.19914 142.923 9.07109 143.33 9.07109H143.749V11.2319H143.33C142.772 11.2319 142.295 11.4553 141.9 11.9021C141.505 12.3488 141.307 12.8864 141.307 13.5134V15.9706H142.388V18.0272H137.922V15.9706H139.003Z" fill="#282828"/>
<path d="M149.121 16.0758C149.458 16.0758 149.778 16.0058 150.079 15.8673C150.382 15.7273 150.643 15.5427 150.864 15.3104H153.568C153.394 15.7407 153.152 16.1324 152.844 16.4869C152.535 16.8413 152.183 17.1495 151.788 17.4102C151.393 17.6708 150.959 17.8748 150.488 18.0192C150.017 18.1637 149.525 18.2367 149.013 18.2367C148.362 18.2367 147.755 18.1175 147.19 17.8792C146.626 17.641 146.131 17.3134 145.707 16.8949C145.282 16.4764 144.948 15.9894 144.703 15.431C144.459 14.874 144.336 14.2813 144.336 13.6544C144.336 13.0274 144.459 12.4347 144.703 11.8777C144.948 11.3208 145.282 10.8323 145.707 10.4139C146.131 9.99539 146.625 9.66775 147.19 9.42948C147.754 9.1912 148.362 9.07208 149.013 9.07208C149.687 9.07208 150.321 9.1912 150.914 9.42948C151.508 9.66775 152.025 9.99539 152.466 10.4139C152.908 10.8323 153.257 11.3193 153.513 11.8777C153.768 12.4347 153.896 13.0274 153.896 13.6544C153.896 13.8986 153.866 14.1652 153.81 14.4556H146.85C147.013 14.9321 147.3 15.3208 147.713 15.6231C148.129 15.9239 148.597 16.0758 149.121 16.0758ZM149.121 11.2314C148.644 11.2314 148.211 11.3625 147.821 11.6231C147.432 11.8837 147.138 12.2247 146.94 12.6417H151.3C151.102 12.2232 150.808 11.8837 150.419 11.6231C150.03 11.3625 149.598 11.2314 149.121 11.2314Z" fill="#282828"/>
<path d="M39.6925 26.7447C39.3496 26.7447 39.0544 26.6643 38.8069 26.502C38.5594 26.3397 38.3686 26.1178 38.2359 25.8333C38.1017 25.5489 38.0361 25.2257 38.0361 24.8594C38.0361 24.4886 38.1047 24.1595 38.2419 23.875C38.379 23.5906 38.5714 23.3672 38.8189 23.2064C39.0663 23.0455 39.3541 22.9651 39.6851 22.9651C39.943 22.9651 40.1741 23.0128 40.3813 23.1081C40.5886 23.2034 40.757 23.3359 40.8882 23.5072C41.0194 23.6784 41.1014 23.878 41.1342 24.1073H40.5722C40.5289 23.9406 40.435 23.7931 40.2874 23.6636C40.1398 23.534 39.943 23.47 39.6955 23.47C39.4763 23.47 39.284 23.5265 39.12 23.6397C38.956 23.7529 38.8278 23.9123 38.7369 24.1178C38.6459 24.3233 38.5997 24.5645 38.5997 24.84C38.5997 25.123 38.6444 25.3687 38.7339 25.5772C38.8233 25.7872 38.9501 25.9495 39.1155 26.0656C39.281 26.1818 39.4734 26.2399 39.6955 26.2399C39.8416 26.2399 39.9743 26.2146 40.0936 26.1639C40.2128 26.1133 40.3142 26.0403 40.3962 25.945C40.4782 25.8497 40.5379 25.7351 40.5722 25.6025H41.1342C41.1029 25.8184 41.0239 26.012 40.9002 26.1848C40.7749 26.3575 40.6109 26.493 40.4067 26.5943C40.1994 26.6941 39.9624 26.7447 39.6925 26.7447Z" fill="#282828"/>
<path d="M42.3136 28.039C42.2182 28.039 42.1332 28.0316 42.0586 28.0167C41.9841 28.0018 41.9319 27.9869 41.9036 27.972L42.0467 27.4776C42.1839 27.5118 42.3046 27.5252 42.409 27.5148C42.5134 27.5059 42.6073 27.4582 42.6893 27.3763C42.7713 27.2944 42.8458 27.1589 42.9144 26.9728L43.0188 26.6868L41.665 23.0129H42.2748L43.2857 25.9258H43.3244L44.3353 23.0129H44.945L43.3915 27.2006C43.3214 27.3897 43.235 27.5461 43.1321 27.6712C43.0292 27.7963 42.9099 27.8886 42.7743 27.9482C42.6371 28.0093 42.4835 28.039 42.3136 28.039Z" fill="#282828"/>
<path d="M45.6875 26.6673V23.0113H48.565V26.6673H48.0029V23.5355H46.2496V26.6673H45.6875Z" fill="#282828"/>
<path d="M51.1294 26.7447C50.7776 26.7447 50.4734 26.6658 50.2185 26.5109C49.9635 26.3545 49.7667 26.1356 49.6296 25.8542C49.4924 25.5727 49.4238 25.2451 49.4238 24.8698C49.4238 24.496 49.4924 24.1654 49.6296 23.878C49.7667 23.5921 49.9591 23.3672 50.2066 23.2064C50.454 23.0455 50.7418 22.9651 51.0728 22.9651C51.2636 22.9651 51.4515 22.9964 51.6378 23.0604C51.8242 23.1244 51.9927 23.2272 52.1447 23.3687C52.2968 23.5102 52.4191 23.6978 52.51 23.9316C52.6009 24.1654 52.6457 24.4513 52.6457 24.7923V25.0306H49.8249V24.5451H52.0732C52.0732 24.3396 52.0329 24.155 51.9509 23.9927C51.8689 23.8303 51.7526 23.7037 51.6035 23.6099C51.4544 23.5161 51.277 23.4699 51.0728 23.4699C50.8491 23.4699 50.6553 23.5251 50.4928 23.6353C50.3303 23.7455 50.205 23.8884 50.1171 24.0641C50.0291 24.2399 49.9859 24.429 49.9859 24.63V24.9532C49.9859 25.2287 50.0336 25.4625 50.1305 25.6546C50.2259 25.8452 50.3601 25.9912 50.5316 26.0895C50.703 26.1878 50.9028 26.2384 51.1294 26.2384C51.277 26.2384 51.4112 26.2175 51.5305 26.1758C51.6498 26.1341 51.7541 26.0701 51.8421 25.9852C51.93 25.9003 51.9971 25.7946 52.0448 25.668L52.5875 25.8199C52.5309 26.0046 52.434 26.1654 52.2998 26.3039C52.1641 26.4424 51.9986 26.5511 51.7988 26.6271C51.6005 26.706 51.3769 26.7447 51.1294 26.7447Z" fill="#282828"/>
<path d="M53.5015 28.0388V23.0127H54.0442V23.5936H54.1112C54.153 23.5295 54.2096 23.4491 54.2842 23.3493C54.3587 23.2495 54.4646 23.1617 54.6032 23.0827C54.7419 23.0038 54.9312 22.9651 55.1698 22.9651C55.4784 22.9651 55.7498 23.0425 55.9853 23.1959C56.2209 23.3493 56.4043 23.5682 56.5355 23.8497C56.6667 24.1326 56.7337 24.4647 56.7337 24.849C56.7337 25.2361 56.6681 25.5712 56.5355 25.8542C56.4028 26.1371 56.2209 26.356 55.9868 26.5109C55.7527 26.6658 55.4844 26.7432 55.1787 26.7432C54.9432 26.7432 54.7553 26.7045 54.6137 26.6256C54.472 26.5466 54.3632 26.4573 54.2872 26.356C54.2111 26.2547 54.1515 26.1714 54.1112 26.1043H54.0635V28.0373H53.5015V28.0388ZM54.0546 24.84C54.0546 25.1155 54.0948 25.3598 54.1754 25.5697C54.2559 25.7797 54.3751 25.9435 54.5302 26.0626C54.6852 26.1803 54.8761 26.2399 55.1027 26.2399C55.3383 26.2399 55.5351 26.1773 55.6931 26.0537C55.8511 25.9286 55.9704 25.7603 56.0509 25.5489C56.1314 25.3374 56.1717 25.1006 56.1717 24.8415C56.1717 24.5839 56.1329 24.353 56.0539 24.146C55.9749 23.9391 55.8571 23.7752 55.6991 23.6531C55.541 23.5325 55.3427 23.4714 55.1042 23.4714C54.8761 23.4714 54.6838 23.5295 54.5272 23.6442C54.3722 23.7588 54.2544 23.9197 54.1739 24.1252C54.0934 24.3307 54.0546 24.5675 54.0546 24.84Z" fill="#282828"/>
<path d="M58.1529 23.0128V26.6688H57.5908V23.0128H58.1529ZM59.5916 25.9063L60.8693 23.0128H61.4031L59.8212 26.6688H59.3635L57.81 23.0128H58.3348L59.5916 25.9063ZM61.0304 26.6673V23.0113H61.5924V26.6673H61.0304Z" fill="#282828"/>
<path d="M63.6991 26.7538C63.4665 26.7538 63.2562 26.7091 63.0684 26.6213C62.879 26.5334 62.73 26.4054 62.6182 26.2386C62.5063 26.0718 62.4512 25.8692 62.4512 25.631C62.4512 25.421 62.4929 25.2512 62.5749 25.1202C62.6569 24.9891 62.7672 24.8864 62.9059 24.8119C63.0445 24.7374 63.1966 24.6808 63.3651 24.6436C63.5321 24.6064 63.702 24.5766 63.872 24.5543C64.0941 24.526 64.2745 24.5036 64.4147 24.4888C64.5533 24.4739 64.6547 24.4485 64.7203 24.4113C64.7844 24.3741 64.8172 24.3115 64.8172 24.2207V24.2013C64.8172 23.966 64.7531 23.7843 64.6249 23.6548C64.4967 23.5252 64.3044 23.4597 64.0449 23.4597C63.7766 23.4597 63.5664 23.5178 63.4143 23.6354C63.2622 23.7531 63.1549 23.8781 63.0923 24.0107L62.5585 23.8201C62.6539 23.5982 62.7806 23.424 62.9402 23.3004C63.0997 23.1753 63.2741 23.0889 63.465 23.0383C63.6543 22.9876 63.8422 22.9638 64.0256 22.9638C64.1433 22.9638 64.279 22.9772 64.4311 23.0055C64.5846 23.0338 64.7322 23.0904 64.8769 23.1753C65.02 23.2616 65.1408 23.3897 65.2347 23.5624C65.3286 23.7352 65.3778 23.9675 65.3778 24.2579V26.666H64.8157V26.1715H64.7874C64.7486 26.2505 64.686 26.3354 64.5966 26.4262C64.5071 26.5171 64.3893 26.593 64.2417 26.657C64.0912 26.7225 63.9108 26.7538 63.6991 26.7538ZM63.784 26.249C64.0062 26.249 64.194 26.2058 64.3476 26.1179C64.5012 26.0301 64.6174 25.9184 64.695 25.7799C64.7725 25.6414 64.8128 25.4969 64.8128 25.345V24.8312C64.7889 24.8595 64.7367 24.8863 64.6562 24.9087C64.5757 24.931 64.4833 24.9519 64.3804 24.9683C64.276 24.9847 64.1761 24.9996 64.0777 25.0115C63.9793 25.0234 63.9003 25.0338 63.8407 25.0412C63.6946 25.0606 63.5589 25.0904 63.4322 25.1336C63.3055 25.1753 63.2041 25.2378 63.1265 25.3212C63.049 25.4046 63.0103 25.5178 63.0103 25.6607C63.0103 25.8558 63.0833 26.0033 63.2279 26.1015C63.3755 26.1998 63.5604 26.249 63.784 26.249Z" fill="#282828"/>
<path d="M66.4053 28.0388V23.0127H66.948V23.5936H67.0151C67.0568 23.5295 67.1135 23.4491 67.188 23.3493C67.2625 23.2495 67.3684 23.1617 67.5071 23.0827C67.6457 23.0038 67.8351 22.9651 68.0736 22.9651C68.3822 22.9651 68.6536 23.0425 68.8891 23.1959C69.1247 23.3493 69.3081 23.5682 69.4393 23.8497C69.5705 24.1326 69.6376 24.4647 69.6376 24.849C69.6376 25.2361 69.572 25.5712 69.4393 25.8542C69.3066 26.1371 69.1247 26.356 68.8906 26.5109C68.6565 26.6658 68.3882 26.7432 68.0825 26.7432C67.847 26.7432 67.6591 26.7045 67.5175 26.6256C67.3759 26.5466 67.267 26.4573 67.191 26.356C67.1149 26.2547 67.0553 26.1714 67.0151 26.1043H66.9673V28.0373H66.4053V28.0388ZM66.9584 24.84C66.9584 25.1155 66.9987 25.3598 67.0792 25.5697C67.1597 25.7797 67.2789 25.9435 67.434 26.0626C67.5891 26.1803 67.7799 26.2399 68.0065 26.2399C68.2421 26.2399 68.4389 26.1773 68.5969 26.0537C68.755 25.9286 68.8742 25.7603 68.9547 25.5489C69.0352 25.3374 69.0755 25.1006 69.0755 24.8415C69.0755 24.5839 69.0367 24.353 68.9577 24.146C68.8787 23.9391 68.7609 23.7752 68.6029 23.6531C68.4448 23.5325 68.2465 23.4714 68.008 23.4714C67.7799 23.4714 67.5876 23.5295 67.431 23.6442C67.276 23.7588 67.1582 23.9197 67.0777 24.1252C66.9972 24.3307 66.9584 24.5675 66.9584 24.84Z" fill="#282828"/>
<path d="M70.4932 26.6673V23.0113H71.0552V24.6003H71.4265L72.7414 23.0113H73.466L71.9885 24.773L73.4854 26.6673H72.7608L71.5607 25.1245H71.0552V26.6673H70.4932Z" fill="#282828"/>
<path d="M75.4771 26.7447C75.1252 26.7447 74.8211 26.6658 74.5661 26.5109C74.3112 26.3545 74.1144 26.1356 73.9772 25.8542C73.8401 25.5727 73.7715 25.2451 73.7715 24.8698C73.7715 24.496 73.8401 24.1654 73.9772 23.878C74.1144 23.5921 74.3067 23.3672 74.5542 23.2064C74.8017 23.0455 75.0895 22.9651 75.4204 22.9651C75.6113 22.9651 75.7991 22.9964 75.9855 23.0604C76.1718 23.1244 76.3403 23.2272 76.4924 23.3687C76.6445 23.5102 76.7667 23.6978 76.8577 23.9316C76.9486 24.1654 76.9933 24.4513 76.9933 24.7923V25.0306H74.1725V24.5451H76.4208C76.4208 24.3396 76.3806 24.155 76.2986 23.9927C76.2166 23.8303 76.1003 23.7037 75.9512 23.6099C75.8021 23.5161 75.6247 23.4699 75.4204 23.4699C75.1968 23.4699 75.003 23.5251 74.8405 23.6353C74.678 23.7455 74.5527 23.8884 74.4648 24.0641C74.3768 24.2399 74.3336 24.429 74.3336 24.63V24.9532C74.3336 25.2287 74.3813 25.4625 74.4782 25.6546C74.5736 25.8452 74.7078 25.9912 74.8792 26.0895C75.0507 26.1878 75.2505 26.2384 75.4771 26.2384C75.6247 26.2384 75.7589 26.2175 75.8781 26.1758C75.9974 26.1341 76.1018 26.0701 76.1897 25.9852C76.2777 25.9003 76.3448 25.7946 76.3925 25.668L76.9352 25.8199C76.8785 26.0046 76.7816 26.1654 76.6474 26.3039C76.5118 26.4424 76.3463 26.5511 76.1465 26.6271C75.9482 26.706 75.7261 26.7447 75.4771 26.7447Z" fill="#282828"/>
<path d="M77.5078 23.5355V23.0113H80.4807V23.5355H79.2805V26.6673H78.7184V23.5355H77.5078Z" fill="#282828"/>
<path d="M83.7501 23.0128V26.6688H83.188V23.0128H83.7501ZM85.1888 25.9063L86.4665 23.0128H87.0002L85.4184 26.6688H84.9607L83.4071 23.0128H83.9319L85.1888 25.9063ZM86.6275 26.6673V23.0113H87.1896V26.6673H86.6275Z" fill="#282828"/>
<path d="M89.7539 26.7447C89.4021 26.7447 89.0979 26.6658 88.843 26.5109C88.588 26.3545 88.3912 26.1356 88.2541 25.8542C88.1169 25.5727 88.0483 25.2451 88.0483 24.8698C88.0483 24.496 88.1169 24.1654 88.2541 23.878C88.3912 23.5921 88.5836 23.3672 88.8311 23.2064C89.0786 23.0455 89.3663 22.9651 89.6973 22.9651C89.8881 22.9651 90.076 22.9964 90.2623 23.0604C90.4487 23.1244 90.6172 23.2272 90.7692 23.3687C90.9213 23.5102 91.0436 23.6978 91.1345 23.9316C91.2255 24.1654 91.2702 24.4513 91.2702 24.7923V25.0306H88.4494V24.5451H90.6977C90.6977 24.3396 90.6574 24.155 90.5754 23.9927C90.4934 23.8303 90.3771 23.7037 90.228 23.6099C90.079 23.5161 89.9015 23.4699 89.6973 23.4699C89.4737 23.4699 89.2798 23.5251 89.1173 23.6353C88.9548 23.7455 88.8296 23.8884 88.7416 24.0641C88.6537 24.2399 88.6104 24.429 88.6104 24.63V24.9532C88.6104 25.2287 88.6581 25.4625 88.755 25.6546C88.8504 25.8452 88.9846 25.9912 89.1561 26.0895C89.3275 26.1878 89.5273 26.2384 89.7539 26.2384C89.9015 26.2384 90.0357 26.2175 90.155 26.1758C90.2743 26.1341 90.3786 26.0701 90.4666 25.9852C90.5545 25.9003 90.6216 25.7946 90.6693 25.668L91.212 25.8199C91.1554 26.0046 91.0585 26.1654 90.9243 26.3039C90.7886 26.4424 90.6231 26.5511 90.4234 26.6271C90.2236 26.706 90.0014 26.7447 89.7539 26.7447Z" fill="#282828"/>
<path d="M92.4513 23.0129L93.3279 24.5081L94.2046 23.0129H94.8531L93.6708 24.8402L94.8531 26.6675H94.2046L93.3279 25.2497L92.4513 26.6675H91.8027L92.9656 24.8402L91.8027 23.0129H92.4513Z" fill="#282828"/>
<path d="M96.7298 26.7538C96.4972 26.7538 96.287 26.7091 96.0992 26.6213C95.9098 26.5334 95.7607 26.4054 95.6489 26.2386C95.5371 26.0718 95.4819 25.8692 95.4819 25.631C95.4819 25.421 95.5237 25.2512 95.6057 25.1202C95.6877 24.9891 95.798 24.8864 95.9367 24.8119C96.0753 24.7374 96.2274 24.6808 96.3959 24.6436C96.5628 24.6064 96.7328 24.5766 96.9028 24.5543C97.1249 24.526 97.3053 24.5036 97.4455 24.4888C97.5841 24.4739 97.6855 24.4485 97.7511 24.4113C97.8152 24.3741 97.848 24.3115 97.848 24.2207V24.2013C97.848 23.966 97.7839 23.7843 97.6557 23.6548C97.5275 23.5252 97.3351 23.4597 97.0757 23.4597C96.8074 23.4597 96.5971 23.5178 96.4451 23.6354C96.293 23.7531 96.1856 23.8781 96.123 24.0107L95.5893 23.8201C95.6847 23.5982 95.8114 23.424 95.971 23.3004C96.1305 23.1753 96.3049 23.0889 96.4958 23.0383C96.6851 22.9876 96.873 22.9638 97.0563 22.9638C97.1741 22.9638 97.3098 22.9772 97.4619 23.0055C97.6154 23.0338 97.763 23.0904 97.9076 23.1753C98.0508 23.2616 98.1715 23.3897 98.2655 23.5624C98.3594 23.7352 98.4086 23.9675 98.4086 24.2579V26.666H97.8465V26.1715H97.8182C97.7794 26.2505 97.7168 26.3354 97.6274 26.4262C97.5379 26.5171 97.4201 26.593 97.2725 26.657C97.1219 26.7225 96.9415 26.7538 96.7298 26.7538ZM96.8148 26.249C97.037 26.249 97.2248 26.2058 97.3784 26.1179C97.5319 26.0301 97.6482 25.9184 97.7258 25.7799C97.8033 25.6414 97.8435 25.4969 97.8435 25.345V24.8312C97.8197 24.8595 97.7675 24.8863 97.687 24.9087C97.6065 24.931 97.514 24.9519 97.4112 24.9683C97.3068 24.9847 97.2069 24.9996 97.1085 25.0115C97.0101 25.0234 96.9311 25.0338 96.8715 25.0412C96.7254 25.0606 96.5897 25.0904 96.463 25.1336C96.3362 25.1753 96.2348 25.2378 96.1573 25.3212C96.0798 25.4046 96.041 25.5178 96.041 25.6607C96.041 25.8558 96.1141 26.0033 96.2587 26.1015C96.4063 26.1998 96.5912 26.249 96.8148 26.249Z" fill="#282828"/>
<path d="M99.9981 23.0129V26.669H99.436V23.0129H99.9981ZM101.886 24.5826V25.1068H99.8654V24.5826H101.886ZM102.313 23.0129V26.669H101.751V23.0129H102.313Z" fill="#282828"/>
<path d="M103.906 25.8395L105.668 23.0129H106.317V26.669H105.755V23.8424L104.001 26.669H103.344V23.0129H103.906V25.8395Z" fill="#282828"/>
<path d="M107.117 25.7352H107.718C107.73 25.9005 107.806 26.0256 107.943 26.112C108.08 26.1983 108.259 26.2401 108.48 26.2401C108.705 26.2401 108.899 26.1939 109.058 26.1001C109.218 26.0062 109.298 25.8573 109.298 25.6488C109.298 25.5267 109.269 25.4195 109.207 25.3287C109.146 25.2378 109.063 25.1663 108.952 25.1157C108.842 25.0651 108.714 25.0398 108.565 25.0398H107.936V24.5349H108.565C108.788 24.5349 108.954 24.4843 109.061 24.383C109.169 24.2817 109.222 24.1552 109.222 24.0018C109.222 23.838 109.164 23.7069 109.048 23.6086C108.932 23.5088 108.768 23.4597 108.554 23.4597C108.34 23.4597 108.161 23.5073 108.018 23.6041C107.875 23.6994 107.8 23.823 107.791 23.9735H107.201C107.207 23.7769 107.268 23.6026 107.381 23.4507C107.496 23.2988 107.651 23.1797 107.848 23.0933C108.045 23.007 108.27 22.9638 108.525 22.9638C108.783 22.9638 109.006 23.0085 109.196 23.0978C109.385 23.1872 109.532 23.3093 109.637 23.4612C109.741 23.6146 109.793 23.7873 109.793 23.9809C109.793 24.1864 109.735 24.3532 109.619 24.4813C109.503 24.6079 109.358 24.6987 109.184 24.7523V24.7896C109.322 24.7985 109.442 24.8432 109.544 24.9221C109.647 25.001 109.726 25.1023 109.784 25.2289C109.841 25.3555 109.871 25.494 109.871 25.6459C109.871 25.8678 109.811 26.0613 109.692 26.2252C109.573 26.389 109.409 26.5171 109.201 26.6064C108.994 26.6958 108.756 26.7404 108.489 26.7404C108.229 26.7404 107.998 26.6973 107.793 26.6124C107.588 26.5275 107.426 26.4098 107.305 26.2579C107.186 26.1105 107.123 25.9348 107.117 25.7352Z" fill="#282828"/>
<path d="M111.225 23.0128V26.6688H110.663V23.0128H111.225ZM112.663 25.9063L113.941 23.0128H114.475L112.893 26.6688H112.435L110.882 23.0128H111.407L112.663 25.9063ZM114.102 26.6673V23.0113H114.664V26.6673H114.102Z" fill="#282828"/>
<path d="M117.181 26.7447C116.85 26.7447 116.561 26.6658 116.313 26.5094C116.064 26.353 115.87 26.1326 115.732 25.8497C115.593 25.5667 115.523 25.2376 115.523 24.8594C115.523 24.4781 115.593 24.146 115.732 23.8616C115.87 23.5771 116.064 23.3568 116.313 23.2004C116.562 23.044 116.851 22.9651 117.181 22.9651C117.51 22.9651 117.801 23.044 118.05 23.2004C118.299 23.3568 118.493 23.5786 118.631 23.8616C118.77 24.146 118.84 24.4781 118.84 24.8594C118.84 25.2376 118.77 25.5667 118.631 25.8497C118.493 26.1326 118.299 26.3515 118.05 26.5094C117.801 26.6673 117.51 26.7447 117.181 26.7447ZM117.181 26.2399C117.431 26.2399 117.639 26.1758 117.801 26.0478C117.964 25.9197 118.083 25.7499 118.16 25.5414C118.238 25.3314 118.277 25.1051 118.277 24.8609C118.277 24.6166 118.238 24.3888 118.16 24.1773C118.083 23.9658 117.962 23.7961 117.801 23.665C117.639 23.5355 117.433 23.4699 117.181 23.4699C116.93 23.4699 116.723 23.5355 116.562 23.665C116.4 23.7946 116.28 23.9658 116.203 24.1773C116.125 24.3888 116.087 24.6166 116.087 24.8609C116.087 25.1051 116.125 25.3314 116.203 25.5414C116.28 25.7514 116.401 25.9197 116.562 26.0478C116.723 26.1758 116.93 26.2399 117.181 26.2399Z" fill="#282828"/>
<path d="M119.696 26.6673V23.0113H121.193C121.586 23.0113 121.899 23.1006 122.132 23.2779C122.365 23.4551 122.479 23.6904 122.479 23.9823C122.479 24.2041 122.414 24.3754 122.281 24.4975C122.15 24.6181 121.98 24.7016 121.774 24.7433C121.91 24.7626 122.041 24.8103 122.168 24.8862C122.294 24.9622 122.402 25.0664 122.485 25.199C122.569 25.3315 122.612 25.4938 122.612 25.6859C122.612 25.8735 122.564 26.0404 122.469 26.1878C122.373 26.3352 122.236 26.4514 122.059 26.5378C121.881 26.6241 121.668 26.6658 121.421 26.6658H119.696V26.6673ZM120.23 24.5452H121.193C121.343 24.5452 121.473 24.5243 121.58 24.4826C121.688 24.441 121.771 24.3799 121.829 24.3025C121.887 24.225 121.916 24.1312 121.916 24.0225C121.916 23.8691 121.852 23.747 121.723 23.6591C121.595 23.5712 121.418 23.5266 121.193 23.5266H120.23V24.5452ZM120.23 26.1535H121.421C121.615 26.1535 121.767 26.1074 121.876 26.015C121.986 25.9227 122.04 25.7976 122.04 25.6398C122.04 25.4506 121.984 25.3017 121.876 25.193C121.767 25.0843 121.615 25.0307 121.421 25.0307H120.23V26.1535Z" fill="#282828"/>
<path d="M125.91 25.8395L127.674 23.0129H128.322V26.669H127.76V23.8424L126.007 26.669H125.35V23.0129H125.912V25.8395H125.91Z" fill="#282828"/>
<path d="M131.799 23.0128V26.6688H131.237V23.0128H131.799ZM133.238 25.9063L134.516 23.0128H135.05L133.468 26.6688H133.01L131.456 23.0128H131.981L133.238 25.9063ZM134.678 26.6673V23.0113H135.24V26.6673H134.678Z" fill="#282828"/>
<path d="M137.346 26.7538C137.113 26.7538 136.903 26.7091 136.715 26.6213C136.526 26.5334 136.375 26.4054 136.265 26.2386C136.153 26.0718 136.098 25.8692 136.098 25.631C136.098 25.421 136.139 25.2512 136.221 25.1202C136.303 24.9891 136.414 24.8864 136.552 24.8119C136.691 24.7374 136.843 24.6808 137.012 24.6436C137.18 24.6064 137.349 24.5766 137.518 24.5543C137.741 24.526 137.921 24.5036 138.061 24.4888C138.2 24.4739 138.301 24.4485 138.365 24.4113C138.429 24.3741 138.462 24.3115 138.462 24.2207V24.2013C138.462 23.966 138.398 23.7843 138.27 23.6548C138.142 23.5252 137.948 23.4597 137.69 23.4597C137.422 23.4597 137.211 23.5178 137.059 23.6354C136.907 23.7531 136.8 23.8781 136.737 24.0107L136.204 23.8201C136.299 23.5982 136.426 23.424 136.587 23.3004C136.746 23.1753 136.921 23.0889 137.111 23.0383C137.301 22.9876 137.489 22.9638 137.672 22.9638C137.79 22.9638 137.926 22.9772 138.078 23.0055C138.23 23.0338 138.379 23.0904 138.523 23.1753C138.666 23.2616 138.787 23.3897 138.883 23.5624C138.978 23.7352 139.026 23.9675 139.026 24.2579V26.666H138.464V26.1715H138.435C138.397 26.2505 138.334 26.3354 138.245 26.4262C138.155 26.5171 138.037 26.593 137.89 26.657C137.739 26.7225 137.559 26.7538 137.346 26.7538ZM137.432 26.249C137.654 26.249 137.842 26.2058 137.996 26.1179C138.149 26.0301 138.265 25.9184 138.343 25.7799C138.42 25.6414 138.461 25.4969 138.461 25.345V24.8312C138.437 24.8595 138.385 24.8863 138.304 24.9087C138.224 24.931 138.131 24.9519 138.028 24.9683C137.924 24.9847 137.824 24.9996 137.726 25.0115C137.627 25.0234 137.548 25.0338 137.489 25.0412C137.343 25.0606 137.207 25.0904 137.08 25.1336C136.953 25.1753 136.852 25.2378 136.776 25.3212C136.7 25.4046 136.66 25.5178 136.66 25.6607C136.66 25.8558 136.733 26.0033 136.877 26.1015C137.024 26.1998 137.208 26.249 137.432 26.249Z" fill="#282828"/>
<path d="M140.053 23.0129H140.615V26.1447H141.997V23.0129H142.559V26.1447H143.941V23.0129H144.503V26.669H140.053V23.0129Z" fill="#282828"/>
<path d="M146.094 25.8395L147.858 23.0129H148.507V26.669H147.944V23.8424L146.191 26.669H145.534V23.0129H146.096V25.8395H146.094Z" fill="#282828"/>
<path d="M150.097 23.0129V26.669H149.535V23.0129H150.097ZM151.983 24.5826V25.1068H149.963V24.5826H151.983ZM152.413 23.0129V26.669H151.851V23.0129H152.413Z" fill="#282828"/>
<path d="M15.3428 21.4787C12.2924 21.4787 9.81006 18.9992 9.81006 15.9523C9.81006 12.9054 12.2924 10.4258 15.3428 10.4258C18.3932 10.4258 20.8756 12.9054 20.8756 15.9523C20.8741 18.9992 18.3932 21.4787 15.3428 21.4787ZM15.3428 11.6187C12.9499 11.6187 11.0028 13.5636 11.0028 15.9538C11.0028 18.344 12.9499 20.2889 15.3428 20.2889C17.7357 20.2889 19.6828 18.344 19.6828 15.9538C19.6828 13.5636 17.7357 11.6187 15.3428 11.6187Z" fill="#282828"/>
<path d="M15.343 24.7506C14.5334 24.7506 13.7492 24.6389 13.0052 24.4349L11.9795 27.2867C12.4074 27.4401 12.8412 27.5637 13.2855 27.6575L13.7119 31.1125C13.7686 31.5906 14.1711 31.9301 14.6393 31.9033L18.2681 31.7335C18.7363 31.7052 19.106 31.315 19.1358 30.8683L19.2059 27.3955C20.0602 27.114 20.8877 26.7238 21.648 26.2443L24.3749 28.3992C24.7387 28.6598 25.2754 28.6241 25.5959 28.2815L28.0351 25.5935C28.3541 25.251 28.3571 24.6955 28.0142 24.3768L25.6064 21.8794C25.8211 21.4654 26.003 21.0484 26.155 20.6255C26.155 20.624 26.1565 20.6225 26.1565 20.6225L23.3506 19.6158C21.9596 22.6449 18.8988 24.7506 15.343 24.7506Z" fill="#282828"/>
<path d="M6.5346 15.9527C6.5346 15.4166 6.58529 14.8909 6.67773 14.3815L4.15809 13.4776C4.02242 13.8573 3.91061 14.2475 3.82861 14.6392L0.7141 15.0234C0.283228 15.0755 -0.0238845 15.4359 0.00146095 15.8573L0.15501 19.1202C0.180356 19.5417 0.532207 19.8738 0.934752 19.9006L4.06565 19.9631C4.31911 20.7315 4.67096 21.4761 5.12867 22.1686L3.18603 24.6213C2.91469 24.9653 2.94748 25.4479 3.29188 25.7189L5.71461 27.9125C6.02322 28.1999 6.52417 28.2029 6.81191 27.8946L9.06318 25.7293C9.42696 25.9169 9.79223 26.0778 10.165 26.2133C10.1709 26.2163 10.1784 26.2178 10.1843 26.2193L11.1027 23.6653C8.37886 22.1686 6.5346 19.2766 6.5346 15.9527Z" fill="#282828"/>
<path d="M30.5503 12.8967C30.525 12.4678 30.1746 12.1029 29.7557 12.1014L26.5666 12.0374C26.3072 11.2541 25.9494 10.4961 25.4827 9.78868L27.4626 7.28982C27.7385 6.93986 27.6952 6.47374 27.3538 6.17143L24.8849 3.93612C24.5703 3.64275 24.0604 3.63975 23.7667 3.95547L21.4722 6.16099C21.095 5.9659 20.7163 5.80059 20.3301 5.66209L19.4326 8.1595C22.237 9.63083 24.1513 12.5676 24.1513 15.9525C24.1513 16.5676 24.0872 17.1692 23.9665 17.7485L26.4712 18.6465C26.6098 18.2593 26.7217 17.8661 26.8066 17.4626L29.9793 17.0709C30.4191 17.0188 30.7307 16.651 30.7054 16.2221L30.5503 12.8967Z" fill="#282828"/>
<path d="M15.3428 7.15431C16.1718 7.15431 16.9724 7.27046 17.7327 7.48491L18.7406 4.68225C18.7376 4.68076 18.7332 4.67926 18.7302 4.67777C18.3008 4.5229 17.8639 4.40078 17.4167 4.30547L16.9843 0.802854C16.9262 0.317372 16.5192 -0.0266541 16.045 0.00164088L12.367 0.172922C11.8929 0.201217 11.5172 0.59733 11.4873 1.05005L11.4158 4.57056C10.5496 4.85648 9.71018 5.2511 8.93938 5.73658L6.17375 3.55193C5.78611 3.24664 5.27027 3.2943 4.9363 3.67107L2.46288 6.39633C2.13935 6.7448 2.13637 7.3062 2.48375 7.63085L4.92437 10.164C4.71266 10.5691 4.52779 10.9905 4.37124 11.4239C4.36975 11.4284 4.36826 11.4343 4.36677 11.4388L7.25167 12.4738C8.59945 9.34642 11.714 7.15431 15.3428 7.15431Z" fill="#FF0000"/>
</g>
<defs>
<clipPath id="clip0_245_628">
<rect width="154" height="32" fill="white"/>
</clipPath>
<clipPath id="clip1_245_628">
<rect width="154" height="32" fill="white"/>
</clipPath>
</defs>
</svg>
