<svg width="5" height="12" viewBox="0 0 5 12" fill="none" xmlns="http://www.w3.org/2000/svg">
<path d="M2.25 2.018C2.25 1.706 2.358 1.442 2.574 1.226C2.802 1.01 3.066 0.895999 3.366 0.883999C3.678 0.883999 3.942 0.997999 4.158 1.226C4.374 1.442 4.482 1.7 4.482 2C4.482 2.312 4.374 2.576 4.158 2.792C3.942 3.008 3.678 3.122 3.366 3.134C3.054 3.134 2.79 3.026 2.574 2.81C2.358 2.582 2.25 2.318 2.25 2.018ZM1.656 4.754C1.68 4.658 1.656 4.574 1.584 4.502C1.524 4.43 1.446 4.394 1.35 4.394L1.368 4.25H4.572L4.554 4.394C4.458 4.394 4.368 4.43 4.284 4.502C4.212 4.574 4.164 4.658 4.14 4.754L3.294 9.506C3.27 9.626 3.276 9.74 3.312 9.848C3.348 9.956 3.408 10.04 3.492 10.1C3.588 10.148 3.702 10.16 3.834 10.136C3.978 10.1 4.14 9.998 4.32 9.83L4.41 9.974C4.242 10.274 4.032 10.52 3.78 10.712C3.528 10.904 3.258 11.03 2.97 11.09C2.682 11.162 2.4 11.168 2.124 11.108C1.848 11.048 1.602 10.928 1.386 10.748C1.182 10.568 1.032 10.328 0.936 10.028C0.84 9.716 0.828 9.344 0.9 8.912L1.656 4.754Z" fill="white"/>
</svg>
