<svg width="24" height="24" viewBox="0 0 24 24" fill="none" xmlns="http://www.w3.org/2000/svg">
<g clip-path="url(#clip0_4559_9653)">
<path d="M11.4579 7.34V12.7463C11.0143 12.5098 10.5657 12.2734 10.1172 12.037C8.99339 11.4434 7.86959 10.8498 6.74332 10.2562C6.58066 10.17 6.43033 10.0813 6.25781 9.99758V4.59375C6.3071 4.62331 6.37364 4.65286 6.43033 4.68242C6.43279 4.68488 6.43526 4.68488 6.43772 4.68734C6.6053 4.77601 6.77043 4.86222 6.93801 4.95089C6.99223 4.98044 7.04891 5.01 7.10313 5.03955C7.15981 5.06911 7.21403 5.09867 7.27072 5.12822C7.38162 5.18733 7.49498 5.24645 7.60589 5.30556C8.72969 5.89914 9.85596 6.4878 10.9798 7.08139C10.9847 7.08385 10.9872 7.08138 10.9921 7.08385C11.0192 7.09863 11.0463 7.11587 11.0734 7.11587C11.0783 7.1405 11.0833 7.13064 11.0857 7.13311C11.1498 7.16759 11.2114 7.20454 11.2755 7.23902C11.3125 7.25872 11.3445 7.28089 11.3815 7.30059C11.4086 7.31044 11.4332 7.32769 11.4579 7.34Z" fill="#282828"/>
<path d="M17.7469 4.60352V10.0024H17.7445C17.6656 10.0394 17.6065 10.0738 17.5375 10.1108C16.4654 10.6773 15.3934 11.2413 14.3213 11.8078C14.3016 11.8177 14.2843 11.83 14.2622 11.8398C13.6904 12.1403 13.1137 12.4359 12.5469 12.7388V7.33991C12.5962 7.30297 12.68 7.26849 12.749 7.23154C13.821 6.66505 14.8931 6.09856 15.9651 5.53453C16.5591 5.22173 17.1555 4.91632 17.7469 4.60352Z" fill="#282828"/>
<path d="M17.1307 3.70931C16.7118 3.93098 16.2953 4.15018 15.8763 4.37185C14.7525 4.96544 13.6287 5.55902 12.5024 6.15261C12.3349 6.24127 12.1673 6.32994 11.9997 6.41861C11.3811 6.09103 10.7625 5.76591 10.1439 5.43833C9.05216 4.86199 7.96286 4.28565 6.87109 3.70931C7.29006 3.48763 7.70655 3.26843 8.12552 3.04676C9.24932 2.45317 10.3731 1.85959 11.4969 1.266C11.6645 1.17734 11.8321 1.08867 11.9997 1C12.6183 1.32758 13.2369 1.6527 13.8579 1.98028C14.9472 2.55662 16.039 3.13296 17.1307 3.70931Z" fill="#282828"/>
<path d="M5.1976 17.2692V22.6681C4.72935 22.4366 4.31285 22.2026 3.87417 21.9711C2.75037 21.3775 1.62902 20.7839 0.505219 20.1928C0.33517 20.1041 0.147869 20.013 0 19.9243V14.5205C0.0739346 14.5722 0.19223 14.624 0.290809 14.6732C0.305596 14.6806 0.317919 14.688 0.330241 14.6954C0.497826 14.7841 0.665411 14.8776 0.835461 14.9663C1.00305 15.055 1.17063 15.1387 1.33822 15.2372C2.45463 15.8284 3.57104 16.4121 4.68745 17.0008C4.68992 17.0008 4.69238 17.0008 4.69484 17.0008C4.69731 17.0008 4.69977 17.0008 4.69977 17.0032C4.7047 17.0057 4.70717 17.0057 4.7121 17.0081C4.74413 17.0254 4.77371 17.0402 4.80575 17.0574C4.9339 17.1264 5.05959 17.1953 5.19021 17.2643C5.19021 17.2668 5.19267 17.2692 5.1976 17.2692Z" fill="#282828"/>
<path d="M11.4579 14.5273V19.9263C10.8418 20.2538 10.2182 20.5814 9.59719 20.909C8.48324 21.4976 7.39148 22.0838 6.25781 22.6725V17.2687C6.25781 17.2637 6.27506 17.2613 6.28246 17.2564C6.34407 17.2243 6.40568 17.1923 6.46483 17.1603C6.93308 16.9115 7.4038 16.6652 7.87205 16.4165C8.47585 16.0987 9.07965 15.7786 9.68098 15.4608C9.90279 15.3426 10.1246 15.2268 10.3489 15.1111C10.4031 15.084 10.4548 15.0544 10.509 15.0273C10.7629 14.8943 11.0143 14.7638 11.2681 14.6283C11.3347 14.5938 11.4086 14.5618 11.4579 14.5273Z" fill="#282828"/>
<path d="M10.8454 13.6326C10.4511 13.8543 10.0173 14.0759 9.59837 14.2951C8.47457 14.8887 7.35323 15.4823 6.22942 16.0783C6.14563 16.1227 6.0643 16.167 5.98051 16.2113C5.89672 16.2557 5.81293 16.3 5.72913 16.3443L3.87584 15.3641C2.78407 14.7877 1.69477 14.2114 0.605469 13.635C1.02443 13.4134 1.44093 13.1942 1.85989 12.9725C2.9837 12.3789 4.1075 11.7878 5.23131 11.1942C5.39889 11.1055 5.56648 11.0046 5.73406 10.9307C5.88933 11.0046 6.04212 11.0908 6.19739 11.172C6.66071 11.4183 7.1191 11.6597 7.58243 11.906C8.67173 12.4824 9.76103 13.0562 10.8454 13.6326Z" fill="#282828"/>
<path d="M17.7469 17.2702V22.6691C17.2787 22.4376 16.8622 22.2036 16.421 21.9721C15.2972 21.3785 14.1759 20.7849 13.0521 20.1938C12.882 20.1052 12.7194 20.014 12.5469 19.9254V14.5166C12.9905 14.7531 13.439 14.9895 13.8876 15.2284C15.0114 15.822 16.1352 16.418 17.2614 17.0116C17.2935 17.0289 17.323 17.0436 17.3551 17.0609C17.4857 17.1299 17.5991 17.2013 17.7469 17.2702Z" fill="#282828"/>
<path d="M23.9994 14.5283C23.4966 14.7943 22.9914 15.0554 22.4862 15.3214C22.4837 15.3239 22.4813 15.3239 22.4788 15.3263C22.4418 15.346 22.4073 15.3633 22.3704 15.383C22.3334 15.4027 22.2989 15.4199 22.2644 15.4396C22.2521 15.447 22.2373 15.4544 22.225 15.4593C22.2324 15.4569 22.2373 15.4519 22.2447 15.4495C22.2422 15.4519 22.2373 15.4519 22.2348 15.4544C22.2324 15.4569 22.2274 15.4569 22.225 15.4593C21.1529 16.0258 20.0809 16.5899 19.0113 17.1563C19.0039 17.1613 18.994 17.1637 18.9866 17.1687C18.93 17.2007 18.8757 17.2302 18.8067 17.2623L18.8043 17.2598H18.7969V22.6686C19.9305 22.0824 21.0223 21.4937 22.1363 20.905C22.7573 20.5775 23.3808 20.2499 23.9969 19.9223L23.9994 14.5283ZM18.8043 17.2647C18.8634 17.2327 18.9226 17.2007 18.9842 17.1711C18.925 17.2031 18.8733 17.2352 18.8043 17.2647Z" fill="#282828"/>
<path d="M23.3953 13.6346C22.9764 13.8563 22.5599 14.0755 22.1409 14.2972C21.0171 14.8908 19.8933 15.4843 18.7695 16.0779C18.7079 16.1099 18.6438 16.1444 18.5822 16.1764C18.5797 16.1764 18.5773 16.1789 18.5773 16.1789C18.5107 16.2134 18.4442 16.2503 18.3752 16.2873C18.3382 16.307 18.3037 16.3218 18.2692 16.3464C17.6506 16.0016 17.032 15.6888 16.411 15.3612C15.8663 15.073 15.3192 14.7824 14.7746 14.4942C14.501 14.3489 14.2299 14.206 13.9564 14.0632C13.8874 14.0262 13.8208 13.9918 13.7518 13.9548C13.5473 13.8464 13.3452 13.7381 13.1406 13.6297C13.5571 13.4105 13.9761 13.1888 14.3926 12.9696C15.5164 12.376 16.6402 11.7824 17.7665 11.1889C17.934 11.1002 18.1016 11.0115 18.2692 10.9229C18.8878 11.2504 19.5064 11.578 20.125 11.9031C21.2143 12.4819 22.3036 13.0583 23.3953 13.6346Z" fill="#282828"/>
</g>
<defs>
<clipPath id="clip0_4559_9653">
<rect width="24" height="24" fill="white"/>
</clipPath>
</defs>
</svg>
