<?xml version="1.0" standalone="no"?>
<!DOCTYPE svg PUBLIC "-//W3C//DTD SVG 20010904//EN"
 "http://www.w3.org/TR/2001/REC-SVG-20010904/DTD/svg10.dtd">
<svg version="1.0" xmlns="http://www.w3.org/2000/svg"
 width="512.000000pt" height="512.000000pt" viewBox="0 0 512.000000 512.000000"
 preserveAspectRatio="xMidYMid meet">
<metadata>
Created by potrace 1.14, written by Peter Selinger 2001-2017
</metadata>
<g transform="translate(0.000000,512.000000) scale(0.100000,-0.100000)"
fill="#000000" stroke="none">
<path d="M108 5044 c-62 -33 -58 159 -58 -2489 0 -2656 -5 -2456 60 -2490 26
-13 306 -15 2455 -15 2149 0 2429 2 2455 15 65 34 60 -166 60 2490 0 2656 5
2456 -60 2490 -26 13 -306 15 -2457 15 -2128 -1 -2431 -3 -2455 -16z m3704
-863 c13 -5 110 -86 215 -180 161 -143 193 -176 198 -205 4 -20 2 -43 -6 -57
-7 -13 -73 -100 -148 -193 l-135 -168 28 -47 c31 -53 71 -136 96 -201 l18 -45
98 -6 c55 -4 158 -7 229 -8 139 -1 179 -13 205 -60 6 -11 17 -130 24 -263 16
-275 13 -296 -46 -323 -26 -11 -409 -65 -465 -65 -7 0 -13 -6 -13 -14 0 -8 -9
-43 -20 -79 l-20 -66 -168 59 c-165 57 -167 58 -165 87 15 187 14 297 -1 391
-32 193 -103 356 -220 513 -100 133 -201 219 -390 334 -14 9 -10 27 43 168 33
87 62 161 65 165 4 3 39 -9 78 -26 l72 -32 41 37 c22 21 92 88 155 150 142
139 173 157 232 134z m-1069 -911 c330 -80 561 -374 560 -710 -2 -325 -201
-591 -523 -700 -100 -34 -298 -39 -410 -11 -158 39 -298 126 -403 249 -62 73
-133 217 -152 307 -19 89 -19 221 0 310 18 87 89 232 149 305 187 226 484 321
779 250z m-1544 -439 l164 -58 2 -209 c1 -195 3 -216 28 -304 36 -125 121
-298 197 -398 76 -102 184 -201 294 -272 46 -30 85 -60 85 -67 1 -13 -108
-315 -118 -325 -3 -4 -39 7 -78 24 l-73 30 -49 -44 c-27 -23 -104 -94 -170
-156 -107 -100 -124 -112 -156 -112 -20 0 -46 5 -58 12 -22 11 -365 312 -380
333 -4 5 -10 20 -13 33 -13 47 -9 54 217 329 l67 82 -69 136 c-38 76 -69 143
-69 151 0 12 -37 14 -212 15 -231 0 -268 6 -301 51 -17 23 -21 54 -32 265 -6
131 -10 247 -7 258 6 25 30 53 57 68 11 6 119 22 239 36 l219 26 19 65 c20 72
26 90 30 90 2 0 77 -27 167 -59z m2618 -820 c210 -74 203 -71 203 -85 0 -6
-15 -43 -34 -82 l-34 -71 179 -186 c178 -185 179 -187 179 -232 0 -52 10 -39
-219 -285 -161 -172 -182 -190 -228 -190 -51 0 -69 11 -261 159 -100 77 -187
141 -192 141 -5 0 -42 -17 -82 -39 -41 -21 -112 -53 -159 -71 l-86 -32 -6
-157 c-4 -86 -7 -193 -7 -239 0 -92 -13 -129 -57 -157 -30 -20 -166 -31 -456
-37 l-158 -3 -32 35 c-32 35 -33 37 -61 260 -36 285 -31 267 -71 274 -66 13
-135 37 -135 48 0 18 132 368 139 368 3 0 40 -6 81 -14 387 -74 786 41 1066
306 87 82 182 204 225 290 16 32 31 58 33 58 3 0 80 -27 173 -59z"/>
<path d="M2400 3114 c-192 -51 -355 -204 -412 -387 -31 -99 -31 -235 0 -334
45 -144 158 -275 295 -343 90 -44 159 -60 266 -60 169 0 306 55 421 170 315
315 167 839 -270 955 -70 19 -228 18 -300 -1z"/>
</g>
</svg>
