<svg width="85" height="80" viewBox="0 0 85 80" fill="none" xmlns="http://www.w3.org/2000/svg">
<path fill-rule="evenodd" clip-rule="evenodd" d="M80.1133 18.229C80.9362 20.0886 81.6795 21.7685 82.1511 23.2464C84.353 30.1313 85.1203 45.6723 83.7858 48.8808C83.6622 49.1638 83.4944 49.5872 83.2803 50.1274C81.0678 55.7099 73.908 73.7749 59.3987 78.5591C43.452 83.8063 7.38832 55.4648 3.9521 49.8834C3.9521 49.8834 -4.35488 30.4989 3.11806 24.8507C6.72109 22.1101 10.4576 21.2077 14.0606 20.439C14.2476 20.3977 14.4343 20.3568 14.6207 20.3159C16.396 19.9262 18.1414 19.5431 19.8321 18.9685C21.5335 18.3669 23.2016 17.5648 24.7362 16.3282C26.9182 14.563 28.6554 12.3523 30.3888 10.1463C33.6113 6.0452 36.8208 1.96067 42.8515 0.787139C52.1259 -1.01763 74.6782 0.218972 76.0794 6.86986C76.9727 11.1314 78.666 14.9581 80.1133 18.229Z" fill="white"/>
</svg>
