<svg width="164" height="116" viewBox="0 0 164 116" fill="none" xmlns="http://www.w3.org/2000/svg">
<path d="M143 44.3274V47.1677C143 48.9836 141.56 50.4735 139.805 50.4735H24.1945C22.4398 50.4735 21 48.9836 21 47.1677V44.3274C21 43.9549 21.09 43.5824 21.2475 43.2798C21.5399 42.6978 22.0573 42.2787 22.6648 42.1157C22.8222 42.0692 23.0022 42.0459 23.1822 42.0459H140.773C142.01 42.0459 143 43.0703 143 44.3274Z" fill="#F5F4F2"/>
<path d="M78.3896 13.9652L66.6849 39.2368H62.7383L75.0293 12.75L78.3896 13.9652Z" fill="#F5F4F2"/>
<path d="M101.265 39.2368H97.3179L85.6133 13.9652L88.9736 12.75L101.265 39.2368Z" fill="#F5F4F2"/>
<path d="M101.265 39.2368H97.3179L85.6133 13.9652L88.9736 12.75L101.265 39.2368Z" fill="#F5F4F2"/>
<path d="M78.3896 13.9652L66.6849 39.2368H62.7383L75.0293 12.75L78.3896 13.9652Z" fill="#F5F4F2"/>
<path d="M27.8654 53.2832C27.8428 53.328 27.8428 53.3505 27.8428 53.3953C27.8428 53.4402 27.8203 53.485 27.8203 53.5299L39.6069 99.9227C40.2604 102.479 42.5592 104.25 45.1959 104.25H118.327C120.941 104.25 123.24 102.479 123.916 99.9675L136.176 53.2832H27.8654ZM51.9569 96.4696C51.9118 96.4696 51.8892 96.4696 51.8442 96.4696C51.0779 96.4696 50.4469 95.8866 50.3793 95.1242L48.058 65.3467C47.9904 64.5395 48.5989 63.8444 49.4102 63.7771C50.2215 63.7098 50.9202 64.3152 50.9878 65.1225L53.309 94.9C53.3541 95.7072 52.7682 96.4247 51.9569 96.4696ZM66.8535 96.5144C66.8309 96.5144 66.8309 96.5144 66.8084 96.5144C66.0196 96.5144 65.366 95.8866 65.3435 95.1018L64.3744 65.257C64.3519 64.4498 64.9829 63.7771 65.7942 63.7547C66.6055 63.7322 67.2816 64.3601 67.3042 65.1673L68.2732 95.0121C68.3183 95.8193 67.6648 96.492 66.8535 96.5144ZM83.4403 95.0794C83.4403 95.8866 82.7867 96.5368 81.9754 96.5368C81.1641 96.5368 80.5105 95.8866 80.5105 95.0794V65.2122C80.5105 64.4049 81.1641 63.7547 81.9754 63.7547C82.7867 63.7547 83.4403 64.4049 83.4403 65.2122V95.0794ZM98.6073 95.1018C98.5848 95.8866 97.9312 96.5144 97.1424 96.5144C97.1199 96.5144 97.1199 96.5144 97.0974 96.5144C96.2861 96.492 95.655 95.8193 95.6776 95.0121L96.6466 65.1673C96.6692 64.3601 97.3453 63.7322 98.1566 63.7547C98.9679 63.7771 99.5989 64.4498 99.5764 65.257L98.6073 95.1018ZM115.915 65.3691L113.594 95.1466C113.526 95.909 112.895 96.492 112.129 96.492C112.084 96.492 112.062 96.492 112.017 96.492C111.205 96.4247 110.597 95.7296 110.664 94.9224L112.986 65.1449C113.053 64.3377 113.752 63.7547 114.563 63.7995C115.374 63.8668 115.96 64.5619 115.915 65.3691Z" fill="#F5F4F2"/>
</svg>
