<svg width="55" height="57" viewBox="0 0 55 57" fill="none" xmlns="http://www.w3.org/2000/svg">
<path d="M27.2971 38.259C21.8698 38.259 17.4531 33.8424 17.4531 28.4151C17.4531 22.9877 21.8698 18.571 27.2971 18.571C32.7244 18.571 37.1411 22.9877 37.1411 28.4151C37.1384 33.8424 32.7244 38.259 27.2971 38.259ZM27.2971 20.6958C23.0396 20.6958 19.5752 24.1602 19.5752 28.4177C19.5752 32.6752 23.0396 36.1395 27.2971 36.1395C31.5546 36.1395 35.019 32.6752 35.019 28.4177C35.019 24.1602 31.5546 20.6958 27.2971 20.6958Z" fill="white"/>
<path d="M27.2969 44.0871C25.8565 44.0871 24.4612 43.8881 23.1375 43.5247L21.3125 48.6045C22.0738 48.8777 22.8457 49.0979 23.6362 49.265L24.3949 55.4192C24.4957 56.2707 25.2119 56.8755 26.0448 56.8277L32.5014 56.5253C33.3343 56.4749 33.9922 55.7799 34.0452 54.9841L34.1699 48.7982C35.6899 48.2968 37.1621 47.6018 38.5149 46.7476L43.3666 50.5861C44.0139 51.0503 44.9688 50.9866 45.5392 50.3765L49.8789 45.5885C50.4466 44.9783 50.4519 43.9889 49.8417 43.4213L45.5577 38.9728C45.9397 38.2353 46.2633 37.4925 46.5339 36.7392C46.5339 36.7365 46.5366 36.7339 46.5366 36.7339L41.5443 34.9407C39.0694 40.3362 33.6234 44.0871 27.2969 44.0871Z" fill="white"/>
<path d="M11.6265 28.4157C11.6265 27.4607 11.7167 26.5243 11.8811 25.6171L7.39816 24.007C7.15677 24.6834 6.95783 25.3784 6.81193 26.076L1.27054 26.7604C0.503926 26.8533 -0.0424957 27.4952 0.00259936 28.2459L0.275798 34.0579C0.320893 34.8086 0.946913 35.4001 1.66313 35.4479L7.2337 35.5593C7.68465 36.928 8.31068 38.2544 9.12504 39.4879L5.66866 43.8568C5.18588 44.4695 5.24422 45.329 5.85699 45.8118L10.1675 49.7192C10.7166 50.2311 11.6079 50.2364 12.1199 49.6873L16.1254 45.8303C16.7726 46.1646 17.4225 46.451 18.0857 46.6924C18.0963 46.6977 18.1096 46.7004 18.1202 46.7031L19.7542 42.1538C14.9078 39.4879 11.6265 34.3364 11.6265 28.4157Z" fill="white"/>
<path d="M54.355 22.9722C54.3099 22.2082 53.6866 21.5583 52.9412 21.5557L47.2672 21.4416C46.8056 20.0463 46.1689 18.6961 45.3387 17.4361L48.8614 12.985C49.3521 12.3616 49.2752 11.5313 48.6678 10.9929L44.275 7.01122C43.7152 6.48865 42.808 6.48331 42.2855 7.04567L38.203 10.9743C37.5319 10.6268 36.8582 10.3323 36.1711 10.0856L34.5742 14.5341C39.5639 17.1549 42.9699 22.386 42.9699 28.4154C42.9699 29.511 42.8558 30.5827 42.6409 31.6146L47.0974 33.2141C47.3441 32.5244 47.543 31.8241 47.6942 31.1052L53.3391 30.4076C54.1216 30.3147 54.676 29.6596 54.6309 28.8956L54.355 22.9722Z" fill="white"/>
<path d="M27.2985 12.7436C28.7734 12.7436 30.1979 12.9505 31.5507 13.3325L33.3439 8.34023C33.3386 8.33757 33.3307 8.33491 33.3254 8.33226C32.5614 8.05638 31.7842 7.83887 30.9884 7.6691L30.2191 1.43006C30.1156 0.565291 29.3915 -0.0475047 28.548 0.00289565L22.0038 0.307989C21.1603 0.35839 20.4918 1.06397 20.4388 1.87037L20.3115 8.14128C18.7703 8.65059 17.2768 9.35349 15.9054 10.2183L10.9847 6.32684C10.295 5.78305 9.37724 5.86794 8.78304 6.53906L4.38227 11.3934C3.80664 12.0142 3.80134 13.0141 4.41941 13.5924L8.7618 18.1046C8.38512 18.8261 8.0562 19.5769 7.77768 20.3488C7.77502 20.3567 7.77236 20.3673 7.76971 20.3753L12.9026 22.2189C15.3006 16.6483 20.842 12.7436 27.2985 12.7436Z" fill="#FF0000"/>
</svg>
