<svg width="274" height="57" viewBox="0 0 274 57" fill="none" xmlns="http://www.w3.org/2000/svg">
<g clip-path="url(#clip0_138_138)">
<path d="M94.5915 32.1106H86.0261V28.4473H88.2596V18.2983L82.8906 32.108H79.6942L74.2616 18.3275V28.4447H76.4951V32.108H67.9297V28.4447H70.1632V14.9745H67.9297V11.3112H75.8744L81.2752 25.3093L86.7078 11.3112H94.5915V14.9745H92.3579V28.4447H94.5915V32.1106Z" fill="#FF0000"/>
<path d="M114.858 32.1109H108.836V30.4344C108.423 31.0127 107.781 31.5008 106.913 31.8934C106.043 32.286 105.205 32.4823 104.399 32.4823C103.239 32.4823 102.16 32.2701 101.154 31.8457C100.152 31.4212 99.271 30.8377 98.515 30.0923C97.7589 29.3469 97.1647 28.4795 96.7297 27.4847C96.2947 26.4926 96.0771 25.4369 96.0771 24.3201C96.0771 23.2033 96.2947 22.1475 96.7297 21.1555C97.1647 20.1634 97.7589 19.2933 98.515 18.5479C99.271 17.8025 100.149 17.2189 101.154 16.7945C102.157 16.3701 103.239 16.1579 104.399 16.1579C105.226 16.1579 106.08 16.3648 106.958 16.7786C107.836 17.1924 108.526 17.7097 109.022 18.3304V16.5292H114.858V20.1926H112.935V28.4476H114.858V32.1109ZM108.836 24.3201C108.836 23.7206 108.728 23.1556 108.51 22.6277C108.293 22.0998 107.988 21.6462 107.595 21.2616C107.202 20.8796 106.746 20.5746 106.229 20.3464C105.712 20.1183 105.162 20.0042 104.584 20.0042C104.006 20.0042 103.452 20.1183 102.924 20.3464C102.396 20.5746 101.94 20.8796 101.558 21.2616C101.176 21.6436 100.87 22.0998 100.642 22.6277C100.414 23.1556 100.3 23.7206 100.3 24.3201C100.3 24.9196 100.414 25.4846 100.642 26.0125C100.87 26.5404 101.176 26.9966 101.558 27.3786C101.94 27.7606 102.396 28.0657 102.924 28.2938C103.452 28.5219 104.003 28.636 104.584 28.636C105.162 28.636 105.712 28.5219 106.229 28.2938C106.746 28.0657 107.202 27.7606 107.595 27.3786C107.988 26.9966 108.293 26.5404 108.51 26.0125C108.728 25.4846 108.836 24.9223 108.836 24.3201Z" fill="#FF0000"/>
<path d="M132.766 26.4926C132.538 27.3202 132.156 28.0975 131.617 28.819C131.079 29.5432 130.442 30.1798 129.707 30.7289C128.973 31.278 128.171 31.7078 127.301 32.0181C126.431 32.3285 125.564 32.4823 124.694 32.4823C123.513 32.4823 122.413 32.2701 121.389 31.8457C120.365 31.4212 119.465 30.8377 118.688 30.0923C117.914 29.3469 117.301 28.4795 116.858 27.4847C116.412 26.4926 116.189 25.4369 116.189 24.3201C116.189 23.2033 116.402 22.1475 116.826 21.1555C117.25 20.1634 117.829 19.2933 118.564 18.5479C119.298 17.8025 120.153 17.2189 121.123 16.7945C122.097 16.3701 123.139 16.1579 124.259 16.1579C125.108 16.1579 125.962 16.333 126.819 16.6858C127.678 17.0386 128.304 17.4736 128.697 17.9882V16.5292H132.05V21.6807H128.543C128.15 21.1634 127.612 20.7549 126.93 20.4552C126.248 20.1554 125.535 20.0042 124.789 20.0042C123.569 20.0042 122.535 20.4234 121.686 21.2616C120.837 22.0998 120.412 23.1185 120.412 24.3175C120.412 24.917 120.527 25.4819 120.755 26.0098C120.983 26.5377 121.293 26.994 121.686 27.376C122.078 27.758 122.54 28.063 123.068 28.2911C123.596 28.5193 124.169 28.6333 124.789 28.6333C125.553 28.6333 126.299 28.4317 127.023 28.0285C127.747 27.6253 128.264 27.1133 128.575 26.4926H132.766Z" fill="#FF0000"/>
<path d="M136.023 28.447V14.9769H134.1V11.3136H140.122V18.0487C140.557 17.4889 141.188 17.0354 142.016 16.6826C142.843 16.3298 143.66 16.1547 144.467 16.1547C145.295 16.1547 146.074 16.3165 146.809 16.6374C147.544 16.9584 148.186 17.3935 148.732 17.9452C149.281 18.4943 149.711 19.1442 150.022 19.8896C150.332 20.635 150.486 21.4334 150.486 22.2849V28.4444H152.409V32.1077H144.464V28.4444H146.387V22.9614C146.387 22.1311 146.088 21.4308 145.488 20.8578C144.889 20.2875 144.164 20.001 143.316 20.001C142.427 20.001 141.671 20.2875 141.05 20.8578C140.43 21.4282 140.119 22.1311 140.119 22.9614V28.4444H142.042V32.1077H134.098V28.4444H136.023V28.447Z" fill="#FF0000"/>
<path d="M155.793 28.4472V20.1922H153.87V16.5289H159.892V28.4472H161.815V32.1106H153.87V28.4472H155.793ZM159.892 15.2265H155.796V11.3165H159.892V15.2265Z" fill="#FF0000"/>
<path d="M181.521 32.1109H173.637V28.4476H175.561V22.9858C175.561 22.1582 175.261 21.4553 174.661 20.8743C174.062 20.296 173.338 20.0042 172.489 20.0042C171.6 20.0042 170.844 20.2934 170.223 20.8743C169.603 21.4526 169.292 22.1582 169.292 22.9858V28.4476H171.154V32.1109H163.303V28.4476H165.197V20.1926H163.273V16.5292H169.109V18.3304C169.627 17.8131 170.319 17.3224 171.189 16.8555C172.059 16.3886 172.876 16.1579 173.64 16.1579C174.468 16.1579 175.247 16.3197 175.982 16.638C176.717 16.9589 177.359 17.3993 177.905 17.9564C178.455 18.5161 178.884 19.166 179.195 19.9114C179.505 20.6568 179.659 21.4526 179.659 22.3014V28.4476H181.521V32.1109Z" fill="#FF0000"/>
<path d="M191.36 28.6351C191.96 28.6351 192.53 28.5104 193.066 28.2637C193.604 28.0143 194.068 27.6854 194.461 27.2716H199.273C198.963 28.0382 198.533 28.7359 197.984 29.3672C197.435 29.9986 196.809 30.5476 196.106 31.0119C195.403 31.4761 194.631 31.8394 193.792 32.0968C192.954 32.3541 192.079 32.4841 191.169 32.4841C190.01 32.4841 188.93 32.2718 187.925 31.8474C186.922 31.423 186.041 30.8394 185.285 30.0941C184.529 29.3487 183.935 28.4812 183.5 27.4865C183.065 26.4944 182.848 25.4386 182.848 24.3219C182.848 23.2051 183.065 22.1493 183.5 21.1572C183.935 20.1651 184.529 19.2951 185.285 18.5497C186.041 17.8043 186.919 17.2207 187.925 16.7963C188.928 16.3719 190.01 16.1597 191.169 16.1597C192.368 16.1597 193.495 16.3719 194.551 16.7963C195.607 17.2207 196.527 17.8043 197.313 18.5497C198.098 19.2951 198.718 20.1625 199.175 21.1572C199.628 22.1493 199.856 23.2051 199.856 24.3219C199.856 24.7569 199.803 25.2317 199.703 25.749H187.32C187.609 26.5978 188.121 27.2902 188.856 27.8287C189.596 28.3645 190.429 28.6351 191.36 28.6351ZM191.36 20.006C190.511 20.006 189.742 20.2394 189.047 20.7036C188.355 21.1678 187.832 21.7753 187.479 22.5181H195.238C194.885 21.7727 194.363 21.1678 193.67 20.7036C192.978 20.2394 192.209 20.006 191.36 20.006Z" fill="#FF0000"/>
<path d="M215.443 26.0596C215.443 27.0119 215.284 27.8794 214.963 28.6672C214.642 29.4524 214.188 30.1314 213.597 30.6991C213.008 31.2694 212.297 31.7072 211.472 32.0175C210.644 32.3279 209.713 32.4818 208.679 32.4818C208.162 32.4818 207.53 32.3411 206.785 32.0626C206.039 31.7841 205.451 31.4047 205.016 30.9299V32.1103H201.477V25.6856H205.294C205.294 26.5133 205.573 27.1711 206.132 27.6565C206.692 28.142 207.363 28.386 208.151 28.386C208.915 28.386 209.578 28.1897 210.138 27.7971C210.697 27.4045 210.976 26.9377 210.976 26.4018C210.976 25.7811 210.822 25.2957 210.512 24.9429C210.201 24.5901 209.793 24.2957 209.286 24.0596C208.78 23.8208 208.193 23.6086 207.533 23.4229C206.87 23.2372 206.199 22.9985 205.517 22.7094C204.297 22.1709 203.283 21.4414 202.474 20.5209C201.668 19.6005 201.265 18.4465 201.265 17.0592C201.265 16.1891 201.429 15.3828 201.761 14.6374C202.092 13.892 202.535 13.2474 203.095 12.6983C203.655 12.1492 204.31 11.7194 205.066 11.409C205.822 11.0987 206.634 10.9448 207.501 10.9448C208.453 10.9448 209.239 11.1146 209.859 11.4568C210.48 11.799 210.934 12.1438 211.225 12.4967V11.3162H214.671V17.1812H210.636C210.636 16.4358 210.347 15.8416 209.766 15.396C209.188 14.9503 208.586 14.7275 207.965 14.7275C207.323 14.7275 206.766 14.945 206.289 15.38C205.814 15.8151 205.575 16.3642 205.575 17.0247C205.575 17.603 205.745 18.0593 206.087 18.3908C206.429 18.7224 206.872 18.9957 207.421 19.2132C207.971 19.4307 208.575 19.627 209.236 19.8021C209.899 19.9771 210.549 20.2105 211.191 20.4997C212.35 21.0382 213.347 21.773 214.186 22.704C215.024 23.6378 215.443 24.7545 215.443 26.0596Z" fill="#282828"/>
<path d="M225.5 20.192H222.985V28.447H224.848V32.1104H218.89V20.192H216.749V16.5287H218.89V11.3136H222.985V16.5287H225.5V20.192Z" fill="#282828"/>
<path d="M235.245 32.4823C234.086 32.4823 233.006 32.2701 232.001 31.8457C230.998 31.4212 230.118 30.8377 229.362 30.0923C228.606 29.3469 228.011 28.4795 227.576 27.4847C227.141 26.4926 226.924 25.4369 226.924 24.3201C226.924 23.2033 227.141 22.1475 227.576 21.1555C228.011 20.1634 228.606 19.2933 229.362 18.5479C230.118 17.8025 230.996 17.2189 232.001 16.7945C233.004 16.3701 234.086 16.1579 235.245 16.1579C236.444 16.1579 237.572 16.3701 238.627 16.7945C239.683 17.2189 240.604 17.8025 241.389 18.5479C242.174 19.2933 242.795 20.1607 243.251 21.1555C243.705 22.1475 243.933 23.2033 243.933 24.3201C243.933 25.4369 243.705 26.4926 243.251 27.4847C242.795 28.4768 242.174 29.3469 241.389 30.0923C240.601 30.8377 239.68 31.4212 238.627 31.8457C237.572 32.2701 236.444 32.4823 235.245 32.4823ZM239.715 24.3201C239.715 23.7206 239.601 23.1556 239.373 22.6277C239.145 22.0998 238.84 21.6462 238.458 21.2616C238.076 20.8796 237.619 20.5746 237.091 20.3464C236.564 20.1183 236.009 20.0042 235.431 20.0042C234.853 20.0042 234.298 20.1183 233.77 20.3464C233.242 20.5746 232.786 20.8796 232.404 21.2616C232.022 21.6436 231.717 22.0998 231.489 22.6277C231.261 23.1556 231.147 23.7206 231.147 24.3201C231.147 24.9196 231.261 25.4846 231.489 26.0125C231.717 26.5404 232.022 26.9966 232.404 27.3786C232.786 27.7606 233.242 28.0657 233.77 28.2938C234.298 28.5219 234.853 28.636 235.431 28.636C236.009 28.636 236.564 28.5219 237.091 28.2938C237.619 28.0657 238.073 27.7606 238.458 27.3786C238.84 26.9966 239.145 26.5404 239.373 26.0125C239.601 25.4846 239.715 24.9223 239.715 24.3201Z" fill="#282828"/>
<path d="M247.318 28.4476V20.1926H245.395V16.5292H251.23V18.3304C251.583 17.7919 252.119 17.2958 252.843 16.8396C253.567 16.386 254.292 16.1579 255.016 16.1579H255.761V20.0069H255.016C254.024 20.0069 253.175 20.4048 252.472 21.2006C251.769 21.9964 251.416 22.9539 251.416 24.0707V28.4476H253.339V32.1109H245.395V28.4476H247.318Z" fill="#282828"/>
<path d="M265.319 28.6351C265.918 28.6351 266.489 28.5104 267.025 28.2637C267.563 28.0143 268.027 27.6854 268.42 27.2716H273.232C272.922 28.0382 272.492 28.7359 271.943 29.3672C271.394 29.9986 270.768 30.5476 270.065 31.0119C269.362 31.4761 268.59 31.8394 267.751 32.0968C266.913 32.3541 266.038 32.4841 265.128 32.4841C263.969 32.4841 262.889 32.2718 261.884 31.8474C260.881 31.423 260 30.8394 259.244 30.0941C258.488 29.3487 257.894 28.4812 257.459 27.4865C257.024 26.4944 256.807 25.4386 256.807 24.3219C256.807 23.2051 257.024 22.1493 257.459 21.1572C257.894 20.1651 258.488 19.2951 259.244 18.5497C260 17.8043 260.878 17.2207 261.884 16.7963C262.887 16.3719 263.969 16.1597 265.128 16.1597C266.327 16.1597 267.454 16.3719 268.51 16.7963C269.566 17.2207 270.486 17.8043 271.272 18.5497C272.057 19.2951 272.677 20.1625 273.134 21.1572C273.587 22.1493 273.815 23.2051 273.815 24.3219C273.815 24.7569 273.762 25.2317 273.662 25.749H261.279C261.568 26.5978 262.08 27.2902 262.815 27.8287C263.555 28.3645 264.388 28.6351 265.319 28.6351ZM265.319 20.006C264.47 20.006 263.701 20.2394 263.006 20.7036C262.314 21.1678 261.791 21.7753 261.438 22.5181H269.197C268.844 21.7727 268.322 21.1678 267.629 20.7036C266.937 20.2394 266.168 20.006 265.319 20.006Z" fill="#282828"/>
<path d="M70.6219 47.6391C70.0118 47.6391 69.4865 47.4959 69.0462 47.2067C68.6059 46.9176 68.2663 46.5223 68.0303 46.0156C67.7915 45.509 67.6748 44.9334 67.6748 44.2808C67.6748 43.6203 67.7968 43.0341 68.0409 42.5274C68.2849 42.0208 68.6271 41.6229 69.0674 41.3364C69.5078 41.0499 70.0197 40.9067 70.6086 40.9067C71.0675 40.9067 71.4787 40.9916 71.8474 41.1613C72.2161 41.3311 72.5159 41.5672 72.7493 41.8722C72.9828 42.1773 73.1286 42.5327 73.187 42.9412H72.187C72.11 42.6441 71.9429 42.3815 71.6803 42.1508C71.4177 41.92 71.0675 41.8059 70.6272 41.8059C70.2373 41.8059 69.895 41.9067 69.6033 42.1083C69.3115 42.3099 69.0833 42.5938 68.9215 42.9598C68.7597 43.3259 68.6775 43.7556 68.6775 44.2463C68.6775 44.7503 68.7571 45.188 68.9162 45.5594C69.0754 45.9334 69.3009 46.2225 69.5953 46.4295C69.8898 46.6364 70.232 46.7399 70.6272 46.7399C70.8872 46.7399 71.1232 46.6948 71.3354 46.6046C71.5477 46.5144 71.728 46.3843 71.8739 46.2146C72.0198 46.0448 72.126 45.8406 72.187 45.6045H73.187C73.1313 45.9891 72.9907 46.334 72.7705 46.6417C72.5477 46.9494 72.2559 47.1908 71.8925 47.3712C71.5238 47.5489 71.102 47.6391 70.6219 47.6391Z" fill="#282828"/>
<path d="M75.2857 49.9445C75.116 49.9445 74.9648 49.9313 74.8321 49.9048C74.6995 49.8782 74.6067 49.8517 74.5563 49.8252L74.8109 48.9445C75.0549 49.0055 75.2698 49.0293 75.4555 49.0108C75.6412 48.9949 75.8083 48.91 75.9542 48.7641C76.1001 48.6182 76.2327 48.3768 76.3548 48.0452L76.5404 47.536L74.1318 40.9918H75.2168L77.0153 46.1804H77.0842L78.8827 40.9918H79.9677L77.2036 48.4511C77.0789 48.788 76.9251 49.0665 76.742 49.2893C76.559 49.5121 76.3468 49.6766 76.1054 49.7827C75.8613 49.8915 75.5881 49.9445 75.2857 49.9445Z" fill="#282828"/>
<path d="M81.2881 47.5012V40.9889H86.4077V47.5012H85.4077V41.9226H82.2881V47.5012H81.2881Z" fill="#282828"/>
<path d="M90.9702 47.639C90.3441 47.639 89.803 47.4984 89.3494 47.2225C88.8958 46.944 88.5457 46.5541 88.3016 46.0527C88.0576 45.5514 87.9355 44.9678 87.9355 44.2993C87.9355 43.6335 88.0576 43.0446 88.3016 42.5327C88.5457 42.0234 88.8878 41.6228 89.3282 41.3363C89.7685 41.0498 90.2805 40.9066 90.8694 40.9066C91.2089 40.9066 91.5431 40.9623 91.8747 41.0764C92.2063 41.1904 92.5061 41.3735 92.7766 41.6255C93.0472 41.8775 93.2647 42.2117 93.4265 42.6282C93.5883 43.0447 93.6679 43.5539 93.6679 44.1614V44.5858H88.6491V43.721H92.6493C92.6493 43.355 92.5777 43.0261 92.4318 42.7369C92.2859 42.4478 92.079 42.2223 91.8137 42.0552C91.5485 41.8881 91.2328 41.8058 90.8694 41.8058C90.4715 41.8058 90.1266 41.904 89.8375 42.1003C89.5483 42.2966 89.3255 42.5512 89.169 42.8642C89.0125 43.1773 88.9356 43.5142 88.9356 43.8723V44.4479C88.9356 44.9386 89.0205 45.3551 89.1929 45.6973C89.3627 46.0368 89.6014 46.2968 89.9064 46.4719C90.2115 46.6469 90.567 46.7371 90.9702 46.7371C91.2328 46.7371 91.4715 46.7 91.6837 46.6257C91.896 46.5514 92.0816 46.4373 92.2381 46.2861C92.3946 46.1349 92.514 45.9466 92.5989 45.7212L93.5645 45.9917C93.4637 46.3207 93.2912 46.6071 93.0525 46.8538C92.8111 47.1005 92.5167 47.2942 92.1612 47.4294C91.8084 47.57 91.4105 47.639 90.9702 47.639Z" fill="#282828"/>
<path d="M95.1904 49.9442V40.9915H96.156V42.026H96.2754C96.3496 41.912 96.4504 41.7687 96.5831 41.591C96.7157 41.4132 96.904 41.2567 97.1507 41.1161C97.3974 40.9755 97.7343 40.9066 98.1587 40.9066C98.7078 40.9066 99.1906 41.0445 99.6098 41.3177C100.029 41.5909 100.355 41.9809 100.589 42.4823C100.822 42.9863 100.941 43.5778 100.941 44.2622C100.941 44.9519 100.825 45.5487 100.589 46.0527C100.352 46.5567 100.029 46.9467 99.6124 47.2225C99.1959 47.4984 98.7185 47.6364 98.1747 47.6364C97.7555 47.6364 97.4213 47.5674 97.1693 47.4268C96.9173 47.2862 96.7237 47.127 96.5884 46.9466C96.4531 46.7663 96.347 46.6177 96.2754 46.4984H96.1905V49.9415H95.1904V49.9442ZM96.1746 44.2463C96.1746 44.737 96.2462 45.1721 96.3894 45.5461C96.5327 45.9201 96.7449 46.2119 97.0208 46.4241C97.2966 46.6336 97.6362 46.7398 98.0394 46.7398C98.4585 46.7398 98.8086 46.6284 99.0898 46.4082C99.371 46.1854 99.5832 45.8856 99.7265 45.5089C99.8697 45.1323 99.9413 44.7105 99.9413 44.2489C99.9413 43.79 99.8724 43.3789 99.7318 43.0102C99.5912 42.6414 99.3816 42.3496 99.1004 42.1321C98.8193 41.9172 98.4665 41.8085 98.042 41.8085C97.6362 41.8085 97.294 41.9119 97.0155 42.1162C96.7396 42.3204 96.53 42.6069 96.3868 42.973C96.2435 43.339 96.1746 43.7608 96.1746 44.2463Z" fill="#282828"/>
<path d="M103.467 40.9915V47.5038H102.467V40.9915H103.467ZM106.027 46.1457L108.3 40.9915H109.25L106.435 47.5038H105.621L102.857 40.9915H103.79L106.027 46.1457ZM108.586 47.5012V40.9889H109.587V47.5012H108.586Z" fill="#282828"/>
<path d="M113.335 47.6553C112.921 47.6553 112.547 47.5757 112.212 47.4192C111.876 47.2627 111.61 47.0346 111.411 46.7375C111.212 46.4404 111.114 46.0796 111.114 45.6552C111.114 45.2811 111.189 44.9788 111.334 44.7453C111.48 44.5119 111.677 44.3288 111.923 44.1962C112.17 44.0636 112.441 43.9627 112.74 43.8964C113.037 43.8301 113.34 43.7771 113.642 43.7373C114.037 43.6869 114.358 43.6471 114.608 43.6206C114.854 43.5941 115.035 43.549 115.152 43.4827C115.266 43.4163 115.324 43.3049 115.324 43.1431V43.1086C115.324 42.6895 115.21 42.3659 114.982 42.1351C114.754 41.9043 114.411 41.7876 113.95 41.7876C113.472 41.7876 113.098 41.8911 112.828 42.1006C112.557 42.3102 112.366 42.533 112.255 42.7691L111.305 42.4296C111.475 42.0343 111.7 41.724 111.984 41.5038C112.268 41.281 112.579 41.1271 112.918 41.0369C113.255 40.9467 113.589 40.9043 113.915 40.9043C114.125 40.9043 114.366 40.9281 114.637 40.9785C114.91 41.0289 115.173 41.1298 115.43 41.281C115.685 41.4348 115.9 41.6629 116.067 41.9706C116.234 42.2783 116.321 42.6922 116.321 43.2094V47.4988H115.321V46.6181H115.271C115.202 46.7586 115.091 46.9099 114.931 47.0717C114.772 47.2335 114.563 47.3688 114.3 47.4828C114.032 47.5995 113.711 47.6553 113.335 47.6553ZM113.486 46.756C113.881 46.756 114.215 46.6791 114.488 46.5226C114.762 46.3661 114.969 46.1671 115.106 45.9204C115.244 45.6737 115.316 45.4165 115.316 45.1459V44.2307C115.274 44.2811 115.181 44.3288 115.038 44.3686C114.894 44.4084 114.73 44.4456 114.547 44.4748C114.361 44.5039 114.183 44.5305 114.008 44.5517C113.833 44.5729 113.693 44.5915 113.587 44.6047C113.327 44.6392 113.085 44.6922 112.86 44.7692C112.634 44.8434 112.454 44.9549 112.316 45.1034C112.178 45.2519 112.109 45.4536 112.109 45.7082C112.109 46.0557 112.239 46.3183 112.496 46.4934C112.759 46.6685 113.088 46.756 113.486 46.756Z" fill="#282828"/>
<path d="M118.149 49.9442V40.9915H119.115V42.026H119.234C119.309 41.912 119.409 41.7687 119.542 41.591C119.675 41.4132 119.863 41.2567 120.11 41.1161C120.356 40.9755 120.693 40.9066 121.118 40.9066C121.667 40.9066 122.15 41.0445 122.569 41.3177C122.988 41.5909 123.314 41.9809 123.548 42.4823C123.781 42.9863 123.9 43.5778 123.9 44.2622C123.9 44.9519 123.784 45.5487 123.548 46.0527C123.311 46.5567 122.988 46.9467 122.571 47.2225C122.155 47.4984 121.677 47.6364 121.134 47.6364C120.715 47.6364 120.38 47.5674 120.128 47.4268C119.876 47.2862 119.683 47.127 119.547 46.9466C119.412 46.7663 119.306 46.6177 119.234 46.4984H119.149V49.9415H118.149V49.9442ZM119.134 44.2463C119.134 44.737 119.205 45.1721 119.348 45.5461C119.492 45.9201 119.704 46.2119 119.98 46.4241C120.256 46.6336 120.595 46.7398 120.998 46.7398C121.417 46.7398 121.768 46.6284 122.049 46.4082C122.33 46.1854 122.542 45.8856 122.685 45.5089C122.829 45.1323 122.9 44.7105 122.9 44.2489C122.9 43.79 122.831 43.3789 122.691 43.0102C122.55 42.6414 122.341 42.3496 122.059 42.1321C121.778 41.9172 121.425 41.8085 121.001 41.8085C120.595 41.8085 120.253 41.9119 119.974 42.1162C119.699 42.3204 119.489 42.6069 119.346 42.973C119.203 43.339 119.134 43.7608 119.134 44.2463Z" fill="#282828"/>
<path d="M125.423 47.5012V40.9889H126.423V43.8193H127.083L129.423 40.9889H130.712L128.083 44.127L130.747 47.5012H129.458L127.322 44.7531H126.423V47.5012H125.423Z" fill="#282828"/>
<path d="M134.291 47.639C133.664 47.639 133.123 47.4984 132.67 47.2225C132.216 46.944 131.866 46.5541 131.622 46.0527C131.378 45.5514 131.256 44.9678 131.256 44.2993C131.256 43.6335 131.378 43.0446 131.622 42.5327C131.866 42.0234 132.208 41.6228 132.649 41.3363C133.089 41.0498 133.601 40.9066 134.19 40.9066C134.529 40.9066 134.863 40.9623 135.195 41.0764C135.527 41.1904 135.826 41.3735 136.097 41.6255C136.368 41.8775 136.585 42.2117 136.747 42.6282C136.909 43.0447 136.988 43.5539 136.988 44.1614V44.5858H131.969V43.721H135.97C135.97 43.355 135.898 43.0261 135.752 42.7369C135.606 42.4478 135.399 42.2223 135.134 42.0552C134.869 41.8881 134.553 41.8058 134.19 41.8058C133.792 41.8058 133.447 41.904 133.158 42.1003C132.869 42.2966 132.646 42.5512 132.489 42.8642C132.333 43.1773 132.256 43.5142 132.256 43.8723V44.4479C132.256 44.9386 132.341 45.3551 132.513 45.6973C132.683 46.0368 132.922 46.2968 133.227 46.4719C133.532 46.6469 133.887 46.7371 134.291 46.7371C134.553 46.7371 134.792 46.7 135.004 46.6257C135.216 46.5514 135.402 46.4373 135.558 46.2861C135.715 46.1349 135.834 45.9466 135.919 45.7212L136.885 45.9917C136.784 46.3207 136.612 46.6071 136.373 46.8538C136.131 47.1005 135.837 47.2942 135.482 47.4294C135.129 47.57 134.734 47.639 134.291 47.639Z" fill="#282828"/>
<path d="M137.903 41.9226V40.9889H143.193V41.9226H141.057V47.5012H140.057V41.9226H137.903Z" fill="#282828"/>
<path d="M149.01 40.9915V47.5038H148.01V40.9915H149.01ZM151.57 46.1457L153.843 40.9915H154.793L151.978 47.5038H151.164L148.4 40.9915H149.333L151.57 46.1457ZM154.129 47.5012V40.9889H155.129V47.5012H154.129Z" fill="#282828"/>
<path d="M159.693 47.639C159.067 47.639 158.526 47.4984 158.072 47.2225C157.618 46.944 157.268 46.5541 157.024 46.0527C156.78 45.5514 156.658 44.9678 156.658 44.2993C156.658 43.6335 156.78 43.0446 157.024 42.5327C157.268 42.0234 157.611 41.6228 158.051 41.3363C158.491 41.0498 159.003 40.9066 159.592 40.9066C159.932 40.9066 160.266 40.9623 160.597 41.0764C160.929 41.1904 161.229 41.3735 161.499 41.6255C161.77 41.8775 161.987 42.2117 162.149 42.6282C162.311 43.0447 162.391 43.5539 162.391 44.1614V44.5858H157.372V43.721H161.372C161.372 43.355 161.3 43.0261 161.154 42.7369C161.009 42.4478 160.802 42.2223 160.536 42.0552C160.271 41.8881 159.955 41.8058 159.592 41.8058C159.194 41.8058 158.849 41.904 158.56 42.1003C158.271 42.2966 158.048 42.5512 157.892 42.8642C157.735 43.1773 157.658 43.5142 157.658 43.8723V44.4479C157.658 44.9386 157.743 45.3551 157.916 45.6973C158.085 46.0368 158.324 46.2968 158.629 46.4719C158.934 46.6469 159.29 46.7371 159.693 46.7371C159.955 46.7371 160.194 46.7 160.406 46.6257C160.619 46.5514 160.804 46.4373 160.961 46.2861C161.117 46.1349 161.237 45.9466 161.322 45.7212L162.287 45.9917C162.186 46.3207 162.014 46.6071 161.775 46.8538C161.534 47.1005 161.239 47.2942 160.884 47.4294C160.528 47.57 160.133 47.639 159.693 47.639Z" fill="#282828"/>
<path d="M164.492 40.9918L166.052 43.6551L167.611 40.9918H168.765L166.662 44.2466L168.765 47.5014H167.611L166.052 44.9761L164.492 47.5014H163.338L165.407 44.2466L163.338 40.9918H164.492Z" fill="#282828"/>
<path d="M172.104 47.6553C171.69 47.6553 171.316 47.5757 170.982 47.4192C170.645 47.2627 170.38 47.0346 170.181 46.7375C169.982 46.4404 169.884 46.0796 169.884 45.6552C169.884 45.2811 169.958 44.9788 170.104 44.7453C170.25 44.5119 170.446 44.3288 170.693 44.1962C170.94 44.0636 171.21 43.9627 171.51 43.8964C171.807 43.8301 172.109 43.7771 172.412 43.7373C172.807 43.6869 173.128 43.6471 173.377 43.6206C173.624 43.5941 173.804 43.549 173.921 43.4827C174.035 43.4163 174.094 43.3049 174.094 43.1431V43.1086C174.094 42.6895 173.98 42.3659 173.751 42.1351C173.523 41.9043 173.181 41.7876 172.719 41.7876C172.242 41.7876 171.868 41.8911 171.597 42.1006C171.327 42.3102 171.136 42.533 171.024 42.7691L170.075 42.4296C170.245 42.0343 170.47 41.724 170.754 41.5038C171.038 41.281 171.348 41.1271 171.688 41.0369C172.024 40.9467 172.359 40.9043 172.685 40.9043C172.895 40.9043 173.136 40.9281 173.407 40.9785C173.68 41.0289 173.942 41.1298 174.2 41.281C174.454 41.4348 174.669 41.6629 174.836 41.9706C175.003 42.2783 175.091 42.6922 175.091 43.2094V47.4988H174.091V46.6181H174.041C173.972 46.7586 173.86 46.9099 173.701 47.0717C173.542 47.2335 173.332 47.3688 173.07 47.4828C172.802 47.5995 172.481 47.6553 172.104 47.6553ZM172.255 46.756C172.651 46.756 172.985 46.6791 173.258 46.5226C173.531 46.3661 173.738 46.1671 173.876 45.9204C174.014 45.6737 174.086 45.4165 174.086 45.1459V44.2307C174.043 44.2811 173.95 44.3288 173.807 44.3686C173.664 44.4084 173.499 44.4456 173.316 44.4748C173.131 44.5039 172.953 44.5305 172.778 44.5517C172.603 44.5729 172.462 44.5915 172.356 44.6047C172.096 44.6392 171.855 44.6922 171.629 44.7692C171.404 44.8434 171.223 44.9549 171.085 45.1034C170.948 45.2519 170.879 45.4536 170.879 45.7082C170.879 46.0557 171.009 46.3183 171.266 46.4934C171.528 46.6685 171.857 46.756 172.255 46.756Z" fill="#282828"/>
<path d="M177.919 40.9918V47.5041H176.919V40.9918H177.919ZM181.277 43.7877V44.7215H177.683V43.7877H181.277ZM182.039 40.9918V47.5041H181.039V40.9918H182.039Z" fill="#282828"/>
<path d="M184.871 46.0265L188.007 40.9918H189.16V47.5041H188.16V42.4694L185.041 47.5041H183.871V40.9918H184.871V46.0265Z" fill="#282828"/>
<path d="M190.585 45.8408H191.654C191.675 46.1353 191.81 46.3581 192.055 46.512C192.299 46.6658 192.617 46.7401 193.009 46.7401C193.41 46.7401 193.755 46.6578 194.039 46.4907C194.323 46.3236 194.466 46.0583 194.466 45.687C194.466 45.4695 194.413 45.2785 194.304 45.1167C194.195 44.9549 194.047 44.8276 193.85 44.7374C193.654 44.6472 193.426 44.6021 193.161 44.6021H192.041V43.7028H193.161C193.559 43.7028 193.853 43.6126 194.044 43.4322C194.235 43.2518 194.331 43.0264 194.331 42.7532C194.331 42.4614 194.227 42.2279 194.02 42.0529C193.813 41.8751 193.521 41.7876 193.142 41.7876C192.76 41.7876 192.442 41.8725 192.187 42.0449C191.933 42.2147 191.8 42.4348 191.784 42.7027H190.733C190.744 42.3526 190.853 42.0422 191.054 41.7717C191.259 41.5011 191.535 41.2889 191.885 41.135C192.235 40.9812 192.635 40.9043 193.089 40.9043C193.548 40.9043 193.946 40.9839 194.283 41.143C194.62 41.3022 194.882 41.5197 195.068 41.7902C195.254 42.0635 195.346 42.3712 195.346 42.716C195.346 43.0821 195.243 43.3792 195.036 43.6073C194.829 43.8328 194.572 43.9946 194.262 44.0901V44.1565C194.508 44.1724 194.72 44.2519 194.903 44.3925C195.087 44.5331 195.227 44.7135 195.331 44.939C195.431 45.1644 195.484 45.4112 195.484 45.6817C195.484 46.077 195.378 46.4218 195.166 46.7136C194.954 47.0054 194.662 47.2335 194.293 47.3927C193.925 47.5518 193.5 47.6314 193.025 47.6314C192.564 47.6314 192.153 47.5545 191.787 47.4033C191.423 47.2521 191.134 47.0425 190.919 46.7719C190.707 46.5093 190.596 46.1963 190.585 45.8408Z" fill="#282828"/>
<path d="M197.894 40.9915V47.5038H196.894V40.9915H197.894ZM200.453 46.1457L202.727 40.9915H203.676L200.862 47.5038H200.048L197.283 40.9915H198.217L200.453 46.1457ZM203.013 47.5012V40.9889H204.013V47.5012H203.013Z" fill="#282828"/>
<path d="M208.491 47.639C207.902 47.639 207.387 47.4984 206.947 47.2199C206.504 46.9413 206.159 46.5488 205.912 46.0448C205.666 45.5408 205.541 44.9546 205.541 44.2808C205.541 43.6017 205.666 43.0101 205.912 42.5035C206.159 41.9968 206.504 41.6042 206.947 41.3257C207.39 41.0472 207.905 40.9066 208.491 40.9066C209.077 40.9066 209.594 41.0472 210.037 41.3257C210.48 41.6042 210.825 41.9994 211.072 42.5035C211.318 43.0101 211.443 43.6017 211.443 44.2808C211.443 44.9546 211.318 45.5408 211.072 46.0448C210.825 46.5488 210.48 46.9387 210.037 47.2199C209.594 47.5011 209.077 47.639 208.491 47.639ZM208.491 46.7398C208.936 46.7398 209.305 46.6257 209.594 46.3976C209.883 46.1695 210.096 45.867 210.234 45.4957C210.371 45.1216 210.44 44.7185 210.44 44.2834C210.44 43.8484 210.371 43.4425 210.234 43.0658C210.096 42.6892 209.881 42.3868 209.594 42.1533C209.305 41.9226 208.939 41.8058 208.491 41.8058C208.045 41.8058 207.676 41.9226 207.39 42.1533C207.101 42.3841 206.889 42.6892 206.751 43.0658C206.613 43.4425 206.544 43.8484 206.544 44.2834C206.544 44.7185 206.613 45.1216 206.751 45.4957C206.889 45.8697 207.103 46.1695 207.39 46.3976C207.676 46.6257 208.045 46.7398 208.491 46.7398Z" fill="#282828"/>
<path d="M212.966 47.5012V40.9889H215.629C216.329 40.9889 216.886 41.1481 217.3 41.4637C217.714 41.7794 217.918 42.1985 217.918 42.7184C217.918 43.1137 217.802 43.4187 217.566 43.6362C217.332 43.8511 217.03 43.9997 216.664 44.074C216.905 44.1084 217.138 44.1933 217.364 44.3286C217.589 44.4639 217.78 44.6496 217.929 44.8857C218.077 45.1218 218.154 45.4109 218.154 45.753C218.154 46.0873 218.07 46.3844 217.9 46.647C217.73 46.9096 217.486 47.1166 217.17 47.2704C216.855 47.4243 216.475 47.4985 216.035 47.4985H212.966V47.5012ZM213.915 43.7211H215.629C215.897 43.7211 216.128 43.684 216.319 43.6097C216.51 43.5355 216.658 43.4267 216.762 43.2888C216.865 43.1508 216.916 42.9837 216.916 42.7901C216.916 42.5168 216.802 42.2993 216.573 42.1428C216.345 41.9863 216.03 41.9067 215.629 41.9067H213.915V43.7211ZM213.915 46.586H216.035C216.38 46.586 216.65 46.5038 216.844 46.3393C217.04 46.1749 217.136 45.952 217.136 45.6709C217.136 45.334 217.038 45.0687 216.844 44.8751C216.65 44.6814 216.38 44.5859 216.035 44.5859H213.915V46.586Z" fill="#282828"/>
<path d="M224.022 46.0265L227.16 40.9918H228.314V47.5041H227.314V42.4694L224.194 47.5041H223.024V40.9918H224.024V46.0265H224.022Z" fill="#282828"/>
<path d="M234.5 40.9915V47.5038H233.5V40.9915H234.5ZM237.06 46.1457L239.333 40.9915H240.283L237.468 47.5038H236.654L233.89 40.9915H234.824L237.06 46.1457ZM239.622 47.5012V40.9889H240.622V47.5012H239.622Z" fill="#282828"/>
<path d="M244.368 47.6553C243.954 47.6553 243.58 47.5757 243.246 47.4192C242.909 47.2627 242.641 47.0346 242.445 46.7375C242.246 46.4404 242.147 46.0796 242.147 45.6552C242.147 45.2811 242.222 44.9788 242.368 44.7453C242.514 44.5119 242.71 44.3288 242.957 44.1962C243.203 44.0636 243.474 43.9627 243.774 43.8964C244.073 43.8301 244.373 43.7771 244.675 43.7373C245.071 43.6869 245.392 43.6471 245.641 43.6206C245.888 43.5941 246.068 43.549 246.182 43.4827C246.296 43.4163 246.355 43.3049 246.355 43.1431V43.1086C246.355 42.6895 246.24 42.3659 246.012 42.1351C245.784 41.9043 245.439 41.7876 244.98 41.7876C244.503 41.7876 244.129 41.8911 243.858 42.1006C243.588 42.3102 243.397 42.533 243.285 42.7691L242.336 42.4296C242.506 42.0343 242.731 41.724 243.018 41.5038C243.301 41.281 243.612 41.1271 243.951 41.0369C244.288 40.9467 244.622 40.9043 244.949 40.9043C245.158 40.9043 245.4 40.9281 245.67 40.9785C245.941 41.0289 246.206 41.1298 246.463 41.281C246.718 41.4348 246.933 41.6629 247.103 41.9706C247.272 42.2783 247.357 42.6922 247.357 43.2094V47.4988H246.357V46.6181H246.307C246.238 46.7586 246.126 46.9099 245.967 47.0717C245.808 47.2335 245.599 47.3688 245.336 47.4828C245.068 47.5995 244.747 47.6553 244.368 47.6553ZM244.522 46.756C244.917 46.756 245.251 46.6791 245.524 46.5226C245.798 46.3661 246.004 46.1671 246.142 45.9204C246.28 45.6737 246.352 45.4165 246.352 45.1459V44.2307C246.309 44.2811 246.217 44.3288 246.073 44.3686C245.93 44.4084 245.766 44.4456 245.583 44.4748C245.397 44.5039 245.219 44.5305 245.044 44.5517C244.869 44.5729 244.728 44.5915 244.622 44.6047C244.362 44.6392 244.121 44.6922 243.896 44.7692C243.67 44.8434 243.49 44.9549 243.354 45.1034C243.219 45.2519 243.148 45.4536 243.148 45.7082C243.148 46.0557 243.277 46.3183 243.535 46.4934C243.795 46.6685 244.124 46.756 244.522 46.756Z" fill="#282828"/>
<path d="M249.185 40.9918H250.185V46.5704H252.644V40.9918H253.644V46.5704H256.103V40.9918H257.103V47.5041H249.185V40.9918Z" fill="#282828"/>
<path d="M259.934 46.0265L263.072 40.9918H264.226V47.5041H263.226V42.4694L260.106 47.5041H258.937V40.9918H259.937V46.0265H259.934Z" fill="#282828"/>
<path d="M267.056 40.9918V47.5041H266.056V40.9918H267.056ZM270.411 43.7877V44.7215H266.817V43.7877H270.411ZM271.175 40.9918V47.5041H270.175V40.9918H271.175Z" fill="#282828"/>
<path d="M27.2981 38.259C21.8708 38.259 17.4541 33.8424 17.4541 28.4151C17.4541 22.9877 21.8708 18.571 27.2981 18.571C32.7254 18.571 37.1421 22.9877 37.1421 28.4151C37.1394 33.8424 32.7254 38.259 27.2981 38.259ZM27.2981 20.6958C23.0406 20.6958 19.5762 24.1602 19.5762 28.4177C19.5762 32.6752 23.0406 36.1395 27.2981 36.1395C31.5556 36.1395 35.02 32.6752 35.02 28.4177C35.02 24.1602 31.5556 20.6958 27.2981 20.6958Z" fill="#282828"/>
<path d="M27.2988 44.0871C25.8584 44.0871 24.4632 43.8881 23.1395 43.5247L21.3145 48.6045C22.0758 48.8777 22.8477 49.0979 23.6382 49.265L24.3968 55.4192C24.4976 56.2707 25.2138 56.8755 26.0468 56.8277L32.5033 56.5253C33.3363 56.4749 33.9941 55.7799 34.0472 54.9841L34.1718 48.7982C35.6918 48.2968 37.164 47.6018 38.5169 46.7476L43.3686 50.5861C44.0158 51.0503 44.9708 50.9866 45.5411 50.3765L49.8808 45.5885C50.4485 44.9783 50.4538 43.9889 49.8437 43.4213L45.5597 38.9728C45.9417 38.2353 46.2653 37.4925 46.5359 36.7392C46.5359 36.7365 46.5385 36.7339 46.5385 36.7339L41.5462 34.9407C39.0713 40.3362 33.6254 44.0871 27.2988 44.0871Z" fill="#282828"/>
<path d="M11.6265 28.4157C11.6265 27.4607 11.7167 26.5243 11.8811 25.6171L7.39816 24.007C7.15677 24.6834 6.95783 25.3784 6.81193 26.076L1.27054 26.7604C0.503926 26.8533 -0.0424957 27.4952 0.00259936 28.2459L0.275798 34.0579C0.320893 34.8086 0.946913 35.4001 1.66313 35.4479L7.2337 35.5593C7.68465 36.928 8.31068 38.2544 9.12504 39.4879L5.66866 43.8568C5.18588 44.4695 5.24422 45.329 5.85699 45.8118L10.1675 49.7192C10.7166 50.2311 11.6079 50.2364 12.1199 49.6873L16.1254 45.8303C16.7726 46.1646 17.4225 46.451 18.0857 46.6924C18.0963 46.6977 18.1096 46.7004 18.1202 46.7031L19.7542 42.1538C14.9078 39.4879 11.6265 34.3364 11.6265 28.4157Z" fill="#282828"/>
<path d="M54.355 22.9722C54.3099 22.2082 53.6866 21.5583 52.9412 21.5557L47.2672 21.4416C46.8056 20.0463 46.1689 18.6961 45.3387 17.4361L48.8614 12.985C49.3521 12.3616 49.2752 11.5313 48.6678 10.9929L44.275 7.01122C43.7152 6.48865 42.808 6.48331 42.2855 7.04567L38.203 10.9743C37.5319 10.6268 36.8582 10.3323 36.1711 10.0856L34.5742 14.5341C39.5639 17.1549 42.9699 22.386 42.9699 28.4154C42.9699 29.511 42.8558 30.5827 42.6409 31.6146L47.0974 33.2141C47.3441 32.5244 47.543 31.8241 47.6942 31.1052L53.3391 30.4076C54.1216 30.3147 54.676 29.6596 54.6309 28.8956L54.355 22.9722Z" fill="#282828"/>
<path d="M27.2985 12.7436C28.7734 12.7436 30.1979 12.9505 31.5507 13.3325L33.3439 8.34023C33.3386 8.33757 33.3307 8.33491 33.3254 8.33226C32.5614 8.05638 31.7842 7.83887 30.9884 7.6691L30.2191 1.43006C30.1156 0.565291 29.3915 -0.0475047 28.548 0.00289565L22.0038 0.307989C21.1603 0.35839 20.4918 1.06397 20.4388 1.87037L20.3115 8.14128C18.7703 8.65059 17.2768 9.35349 15.9054 10.2183L10.9847 6.32684C10.295 5.78305 9.37724 5.86794 8.78304 6.53906L4.38227 11.3934C3.80664 12.0142 3.80134 13.0141 4.41941 13.5924L8.7618 18.1046C8.38512 18.8261 8.0562 19.5769 7.77768 20.3488C7.77502 20.3567 7.77236 20.3673 7.76971 20.3753L12.9026 22.2189C15.3006 16.6483 20.842 12.7436 27.2985 12.7436Z" fill="#FF0000"/>
</g>
<defs>
<clipPath id="clip0_138_138">
<rect width="274" height="57" fill="#282828"/>
</clipPath>
</defs>
</svg>
