<?xml version="1.0" encoding="utf-8"?>
<!-- Generator: Adobe Illustrator 24.1.0, SVG Export Plug-In . SVG Version: 6.00 Build 0)  -->
<svg version="1.1" id="Слой_1" xmlns="http://www.w3.org/2000/svg" xmlns:xlink="http://www.w3.org/1999/xlink" x="0px" y="0px"
	 viewBox="0 0 30 26.4" style="enable-background:new 0 0 30 26.4;" xml:space="preserve">
<style type="text/css">
	.st0{fill-rule:evenodd;clip-rule:evenodd;fill:#FFFFFF;}
</style>
<path id="Forma_1" class="st0" d="M22.4,4.9c-1.7-1.7-4.4-2.4-8.2-2.4C10.5,2.6,8,3.3,6.3,4.6C4.7,5.9,4,7.8,4,10.5v2.8
	c0,3.2,1.8,6.8,5.1,7.3c0.4,0.1,0.7-0.2,0.8-0.6c0.1-0.4-0.2-0.7-0.6-0.8l0,0c-2.5-0.4-3.9-3.4-3.9-6v-2.8c0-3.9,1.5-6.4,8.8-6.5
	c3.3-0.1,5.7,0.6,7.1,2c1.2,1.2,1.8,2.9,1.6,4.6v2.8c0,4.2-1.9,6.1-6.9,6.7h-3.5c-0.2,0-0.4,0.1-0.5,0.2l-2.5,2.4
	c-0.3,0.3-0.3,0.7,0,1c0.3,0.3,0.7,0.3,1,0l2.3-2.2h3.3c2.8-0.3,4.8-1,6.1-2.3c1.4-1.3,2.1-3.2,2.1-5.8v-2.8
	C24.6,8.5,23.8,6.4,22.4,4.9z M14.7,7.2L14.7,7.2c1.1,0,2.2,0.4,3,1.2c0.8,0.8,1.3,1.9,1.3,3c0,0.4,0.3,0.7,0.7,0.7c0,0,0,0,0,0l0,0
	c0.4,0,0.7-0.3,0.7-0.7c0,0,0,0,0,0c0-1.5-0.6-2.9-1.7-4c-1.1-1.1-2.5-1.7-4-1.7l0,0c-0.4,0-0.7,0.3-0.7,0.7
	C14,6.8,14.3,7.2,14.7,7.2z M14.7,9.6c1,0,1.8,0.8,1.8,1.8c0,0.4,0.3,0.7,0.7,0.7c0.4,0,0.7-0.3,0.7-0.7c0-1.8-1.4-3.2-3.2-3.2l0,0
	c-0.4,0-0.7,0.3-0.7,0.7C13.9,9.3,14.3,9.6,14.7,9.6C14.6,9.6,14.7,9.6,14.7,9.6z M11.5,10.8c-0.3,0.2-0.4,0.7-0.2,1c0,0,0,0,0,0
	c0.2,0.3,0.7,0.4,1,0.2c0.5-0.3,0.8-0.8,0.8-1.4c-0.1-0.6-0.4-1.2-0.8-1.7c-0.3-0.5-0.8-1-1.4-1.3c-0.3-0.1-0.7-0.1-1.1,0
	C9.1,7.8,8.5,8.3,8.2,9c-0.3,0.6-0.3,1.4,0,2c0.7,1.6,1.6,3.1,2.8,4.3c1.3,1.2,2.7,2.2,4.4,2.8c0.3,0.1,0.7,0.2,1.1,0.2
	c0.3,0,0.6-0.1,0.9-0.2c0.6-0.3,1.1-0.9,1.3-1.6c0.1-0.3,0.1-0.7,0-1.1c-0.3-0.6-0.8-1-1.3-1.3c-0.5-0.4-1.1-0.7-1.7-0.8
	c-0.6,0-1.1,0.3-1.4,0.8c-0.2,0.3-0.1,0.7,0.2,1c0,0,0,0,0,0c0.3,0.2,0.8,0.1,1-0.2c0-0.1,0.1-0.1,0.1-0.2c0.7,0.3,1.2,0.7,1.7,1.3
	c0,0,0,0.1,0,0.1c-0.1,0.3-0.3,0.6-0.6,0.8c-0.3,0.1-0.6,0.1-0.9,0c-1.4-0.6-2.8-1.4-3.9-2.5c-1.1-1.1-2-2.4-2.5-3.9
	c-0.1-0.3-0.1-0.6,0-0.9C9.7,9.3,9.9,9.1,10.3,9c0,0,0.1,0,0.1,0c0.5,0.5,1,1.1,1.3,1.7C11.6,10.7,11.5,10.8,11.5,10.8L11.5,10.8z"
	/>
</svg>
